<?xml version="1.0" encoding="UTF-8" standalone="no"?><svg xmlns="http://www.w3.org/2000/svg" xmlns:xlink="http://www.w3.org/1999/xlink" contentScriptType="application/ecmascript" contentStyleType="text/css" height="334px" preserveAspectRatio="none" style="width:163px;height:334px;background:#FFFFFF;" version="1.1" viewBox="0 0 163 334" width="163px" zoomAndPan="magnify"><defs><filter height="300%" id="f1cfm0iqe3kt9n" width="300%" x="-1" y="-1"><feGaussianBlur result="blurOut" stdDeviation="2.0"/><feColorMatrix in="blurOut" result="blurOut2" type="matrix" values="0 0 0 0 0 0 0 0 0 0 0 0 0 0 0 0 0 0 .4 0"/><feOffset dx="4.0" dy="4.0" in="blurOut2" result="blurOut3"/><feBlend in="SourceGraphic" in2="blurOut3" mode="normal"/></filter></defs><g><!--MD5=[983838c7f1d4fd8058628d1ed39ab202]
class seri_catalog--><rect fill="#FEFECE" filter="url(#f1cfm0iqe3kt9n)" height="48" id="seri_catalog" style="stroke:#A80036;stroke-width:1.5;" width="108" x="24" y="7"/><ellipse cx="39" cy="23" fill="#ADD1B2" rx="11" ry="11" style="stroke:#A80036;stroke-width:1.0;"/><path d="M41.9688,28.6406 Q41.3906,28.9375 40.75,29.0781 Q40.1094,29.2344 39.4063,29.2344 Q36.9063,29.2344 35.5781,27.5938 Q34.2656,25.9375 34.2656,22.8125 Q34.2656,19.6875 35.5781,18.0313 Q36.9063,16.375 39.4063,16.375 Q40.1094,16.375 40.75,16.5313 Q41.4063,16.6875 41.9688,16.9844 L41.9688,19.7031 Q41.3438,19.125 40.75,18.8594 Q40.1563,18.5781 39.5313,18.5781 Q38.1875,18.5781 37.5,19.6563 Q36.8125,20.7188 36.8125,22.8125 Q36.8125,24.9063 37.5,25.9844 Q38.1875,27.0469 39.5313,27.0469 Q40.1563,27.0469 40.75,26.7813 Q41.3438,26.5 41.9688,25.9219 L41.9688,28.6406 Z " fill="#000000"/><text fill="#000000" font-family="sans-serif" font-size="12" lengthAdjust="spacing" textLength="76" x="53" y="27.1543">seri_catalog</text><line style="stroke:#A80036;stroke-width:1.5;" x1="25" x2="131" y1="39" y2="39"/><line style="stroke:#A80036;stroke-width:1.5;" x1="25" x2="131" y1="47" y2="47"/><!--MD5=[f1ce6d8928fd5d1aafe2837f79b9d39f]
class seri_resolver_intf--><rect codeLine="3" fill="#FEFECE" filter="url(#f1cfm0iqe3kt9n)" height="60.8047" id="seri_resolver_intf" style="stroke:#A80036;stroke-width:1.5;" width="135" x="10.5" y="132"/><ellipse cx="25.5" cy="148" fill="#B4A7E5" rx="11" ry="11" style="stroke:#A80036;stroke-width:1.0;"/><path d="M21.4219,143.7656 L21.4219,141.6094 L28.8125,141.6094 L28.8125,143.7656 L26.3438,143.7656 L26.3438,151.8438 L28.8125,151.8438 L28.8125,154 L21.4219,154 L21.4219,151.8438 L23.8906,151.8438 L23.8906,143.7656 L21.4219,143.7656 Z " fill="#000000"/><text fill="#000000" font-family="sans-serif" font-size="12" font-style="italic" lengthAdjust="spacing" textLength="103" x="39.5" y="152.1543">seri_resolver_intf</text><line style="stroke:#A80036;stroke-width:1.5;" x1="11.5" x2="144.5" y1="164" y2="164"/><line style="stroke:#A80036;stroke-width:1.5;" x1="11.5" x2="144.5" y1="172" y2="172"/><text fill="#000000" font-family="sans-serif" font-size="11" lengthAdjust="spacing" textLength="50" x="16.5" y="186.2104">resolve()</text><!--MD5=[08ef108c389bb35173d0419dfd569484]
class seri_resolver_impl\n<Request>--><rect fill="#FEFECE" filter="url(#f1cfm0iqe3kt9n)" height="66.7422" id="seri_resolver_impl\n&lt;Request&gt;" style="stroke:#A80036;stroke-width:1.5;" width="142" x="7" y="254"/><ellipse cx="22" cy="272.9688" fill="#ADD1B2" rx="11" ry="11" style="stroke:#A80036;stroke-width:1.0;"/><path d="M24.9688,278.6094 Q24.3906,278.9063 23.75,279.0469 Q23.1094,279.2031 22.4063,279.2031 Q19.9063,279.2031 18.5781,277.5625 Q17.2656,275.9063 17.2656,272.7813 Q17.2656,269.6563 18.5781,268 Q19.9063,266.3438 22.4063,266.3438 Q23.1094,266.3438 23.75,266.5 Q24.4063,266.6563 24.9688,266.9531 L24.9688,269.6719 Q24.3438,269.0938 23.75,268.8281 Q23.1563,268.5469 22.5313,268.5469 Q21.1875,268.5469 20.5,269.625 Q19.8125,270.6875 19.8125,272.7813 Q19.8125,274.875 20.5,275.9531 Q21.1875,277.0156 22.5313,277.0156 Q23.1563,277.0156 23.75,276.75 Q24.3438,276.4688 24.9688,275.8906 L24.9688,278.6094 Z " fill="#000000"/><text fill="#000000" font-family="sans-serif" font-size="12" lengthAdjust="spacing" textLength="110" x="36" y="270.1387">seri_resolver_impl</text><text fill="#000000" font-family="sans-serif" font-size="12" lengthAdjust="spacing" textLength="72" x="55" y="284.1074">&lt;Request&gt;</text><line style="stroke:#A80036;stroke-width:1.5;" x1="8" x2="148" y1="291.9375" y2="291.9375"/><line style="stroke:#A80036;stroke-width:1.5;" x1="8" x2="148" y1="299.9375" y2="299.9375"/><text fill="#000000" font-family="sans-serif" font-size="11" lengthAdjust="spacing" textLength="50" x="13" y="314.1479">resolve()</text><!--MD5=[20ed86b85204dd7eea535150900276ae]
reverse link seri_catalog to seri_resolver_intf--><path codeLine="1" d="M78,68.16 C78,88.2 78,112.8 78,131.71 " fill="none" id="seri_catalog-backto-seri_resolver_intf" style="stroke:#A80036;stroke-width:1.0;"/><polygon fill="#FFFFFF" points="78,55.15,74,61.15,78,67.15,82,61.15,78,55.15" style="stroke:#A80036;stroke-width:1.0;"/><text fill="#000000" font-family="sans-serif" font-size="13" lengthAdjust="spacing" textLength="33" x="79" y="98.0669">UUID</text><!--MD5=[25741b3d4661ad0defc48b829862af62]
reverse link seri_resolver_intf to seri_resolver_impl\n<Request>--><path codeLine="4" d="M78,213.63 C78,227.24 78,241.62 78,253.98 " fill="none" id="seri_resolver_intf-backto-seri_resolver_impl\n&lt;Request&gt;" style="stroke:#A80036;stroke-width:1.0;"/><polygon fill="none" points="71,213.27,78,193.27,85,213.27,71,213.27" style="stroke:#A80036;stroke-width:1.0;"/><!--MD5=[1370274e165e607c8d1285d80ed80260]
@startuml
seri_catalog o- - seri_resolver_intf : UUID

interface seri_resolver_intf
seri_resolver_intf <|- - "seri_resolver_impl\n<Request>"

seri_resolver_intf : resolve()
"seri_resolver_impl\n<Request>" : resolve()
@enduml

PlantUML version 1.2022.0(Tue Jan 11 17:16:42 CET 2022)
(GPL source distribution)
Java Runtime: OpenJDK Runtime Environment
JVM: OpenJDK 64-Bit Server VM
Default Encoding: UTF-8
Language: en
Country: null
--></g></svg>