<?xml version="1.0" encoding="UTF-8" standalone="no"?><svg xmlns="http://www.w3.org/2000/svg" xmlns:xlink="http://www.w3.org/1999/xlink" contentScriptType="application/ecmascript" contentStyleType="text/css" height="290px" preserveAspectRatio="none" style="width:1172px;height:290px;background:#FFFFFF;" version="1.1" viewBox="0 0 1172 290" width="1172px" zoomAndPan="magnify"><defs><filter height="300%" id="f7zugn3v6mtd9" width="300%" x="-1" y="-1"><feGaussianBlur result="blurOut" stdDeviation="2.0"/><feColorMatrix in="blurOut" result="blurOut2" type="matrix" values="0 0 0 0 0 0 0 0 0 0 0 0 0 0 0 0 0 0 .4 0"/><feOffset dx="4.0" dy="4.0" in="blurOut2" result="blurOut3"/><feBlend in="SourceGraphic" in2="blurOut3" mode="normal"/></filter></defs><g><!--MD5=[c87287c4437691fa242a62df8e6034f4]
class local_context_intf--><rect codeLine="1" fill="#FEFECE" filter="url(#f7zugn3v6mtd9)" height="48" id="local_context_intf" style="stroke:#A80036;stroke-width:1.5;" width="141" x="7" y="7"/><ellipse cx="22" cy="23" fill="#B4A7E5" rx="11" ry="11" style="stroke:#A80036;stroke-width:1.0;"/><path d="M17.9219,18.7656 L17.9219,16.6094 L25.3125,16.6094 L25.3125,18.7656 L22.8438,18.7656 L22.8438,26.8438 L25.3125,26.8438 L25.3125,29 L17.9219,29 L17.9219,26.8438 L20.3906,26.8438 L20.3906,18.7656 L17.9219,18.7656 Z " fill="#000000"/><text fill="#000000" font-family="sans-serif" font-size="12" font-style="italic" lengthAdjust="spacing" textLength="109" x="36" y="27.1543">local_context_intf</text><line style="stroke:#A80036;stroke-width:1.5;" x1="8" x2="147" y1="39" y2="39"/><line style="stroke:#A80036;stroke-width:1.5;" x1="8" x2="147" y1="47" y2="47"/><!--MD5=[505c6e4448a18ba0247381f875406801]
class remote_context_intf--><rect codeLine="2" fill="#FEFECE" filter="url(#f7zugn3v6mtd9)" height="48" id="remote_context_intf" style="stroke:#A80036;stroke-width:1.5;" width="157" x="183" y="7"/><ellipse cx="198" cy="23" fill="#B4A7E5" rx="11" ry="11" style="stroke:#A80036;stroke-width:1.0;"/><path d="M193.9219,18.7656 L193.9219,16.6094 L201.3125,16.6094 L201.3125,18.7656 L198.8438,18.7656 L198.8438,26.8438 L201.3125,26.8438 L201.3125,29 L193.9219,29 L193.9219,26.8438 L196.3906,26.8438 L196.3906,18.7656 L193.9219,18.7656 Z " fill="#000000"/><text fill="#000000" font-family="sans-serif" font-size="12" font-style="italic" lengthAdjust="spacing" textLength="125" x="212" y="27.1543">remote_context_intf</text><line style="stroke:#A80036;stroke-width:1.5;" x1="184" x2="339" y1="39" y2="39"/><line style="stroke:#A80036;stroke-width:1.5;" x1="184" x2="339" y1="47" y2="47"/><!--MD5=[e48426681498b5385ce16a0518d06cc8]
class sync_context_intf--><rect codeLine="3" fill="#FEFECE" filter="url(#f7zugn3v6mtd9)" height="48" id="sync_context_intf" style="stroke:#A80036;stroke-width:1.5;" width="140" x="375.5" y="7"/><ellipse cx="390.5" cy="23" fill="#B4A7E5" rx="11" ry="11" style="stroke:#A80036;stroke-width:1.0;"/><path d="M386.4219,18.7656 L386.4219,16.6094 L393.8125,16.6094 L393.8125,18.7656 L391.3438,18.7656 L391.3438,26.8438 L393.8125,26.8438 L393.8125,29 L386.4219,29 L386.4219,26.8438 L388.8906,26.8438 L388.8906,18.7656 L386.4219,18.7656 Z " fill="#000000"/><text fill="#000000" font-family="sans-serif" font-size="12" font-style="italic" lengthAdjust="spacing" textLength="108" x="404.5" y="27.1543">sync_context_intf</text><line style="stroke:#A80036;stroke-width:1.5;" x1="376.5" x2="514.5" y1="39" y2="39"/><line style="stroke:#A80036;stroke-width:1.5;" x1="376.5" x2="514.5" y1="47" y2="47"/><!--MD5=[5acea78ebbbd4f268528e8b71685ac5a]
class caching_context_intf--><rect codeLine="4" fill="#FEFECE" filter="url(#f7zugn3v6mtd9)" height="48" id="caching_context_intf" style="stroke:#A80036;stroke-width:1.5;" width="161" x="551" y="7"/><ellipse cx="566" cy="23" fill="#B4A7E5" rx="11" ry="11" style="stroke:#A80036;stroke-width:1.0;"/><path d="M561.9219,18.7656 L561.9219,16.6094 L569.3125,16.6094 L569.3125,18.7656 L566.8438,18.7656 L566.8438,26.8438 L569.3125,26.8438 L569.3125,29 L561.9219,29 L561.9219,26.8438 L564.3906,26.8438 L564.3906,18.7656 L561.9219,18.7656 Z " fill="#000000"/><text fill="#000000" font-family="sans-serif" font-size="12" font-style="italic" lengthAdjust="spacing" textLength="129" x="580" y="27.1543">caching_context_intf</text><line style="stroke:#A80036;stroke-width:1.5;" x1="552" x2="711" y1="39" y2="39"/><line style="stroke:#A80036;stroke-width:1.5;" x1="552" x2="711" y1="47" y2="47"/><!--MD5=[f20e367435066fc9f96db520b31f46c4]
class introspective_context_intf--><rect codeLine="5" fill="#FEFECE" filter="url(#f7zugn3v6mtd9)" height="48" id="introspective_context_intf" style="stroke:#A80036;stroke-width:1.5;" width="192" x="747.5" y="7"/><ellipse cx="762.5" cy="23" fill="#B4A7E5" rx="11" ry="11" style="stroke:#A80036;stroke-width:1.0;"/><path d="M758.4219,18.7656 L758.4219,16.6094 L765.8125,16.6094 L765.8125,18.7656 L763.3438,18.7656 L763.3438,26.8438 L765.8125,26.8438 L765.8125,29 L758.4219,29 L758.4219,26.8438 L760.8906,26.8438 L760.8906,18.7656 L758.4219,18.7656 Z " fill="#000000"/><text fill="#000000" font-family="sans-serif" font-size="12" font-style="italic" lengthAdjust="spacing" textLength="160" x="776.5" y="27.1543">introspective_context_intf</text><line style="stroke:#A80036;stroke-width:1.5;" x1="748.5" x2="938.5" y1="39" y2="39"/><line style="stroke:#A80036;stroke-width:1.5;" x1="748.5" x2="938.5" y1="47" y2="47"/><!--MD5=[a12a62403bf0eef31525da8930d29b9c]
class local_async_context_intf--><rect codeLine="6" fill="#FEFECE" filter="url(#f7zugn3v6mtd9)" height="48" id="local_async_context_intf" style="stroke:#A80036;stroke-width:1.5;" width="183" x="975" y="7"/><ellipse cx="990" cy="23" fill="#B4A7E5" rx="11" ry="11" style="stroke:#A80036;stroke-width:1.0;"/><path d="M985.9219,18.7656 L985.9219,16.6094 L993.3125,16.6094 L993.3125,18.7656 L990.8438,18.7656 L990.8438,26.8438 L993.3125,26.8438 L993.3125,29 L985.9219,29 L985.9219,26.8438 L988.3906,26.8438 L988.3906,18.7656 L985.9219,18.7656 Z " fill="#000000"/><text fill="#000000" font-family="sans-serif" font-size="12" font-style="italic" lengthAdjust="spacing" textLength="151" x="1004" y="27.1543">local_async_context_intf</text><line style="stroke:#A80036;stroke-width:1.5;" x1="976" x2="1157" y1="39" y2="39"/><line style="stroke:#A80036;stroke-width:1.5;" x1="976" x2="1157" y1="47" y2="47"/><!--MD5=[09a87f80344f4d43da43f7431826e30f]
class sync_context_base--><rect codeLine="7" fill="#FEFECE" filter="url(#f7zugn3v6mtd9)" height="48" id="sync_context_base" style="stroke:#A80036;stroke-width:1.5;" width="150" x="370.5" y="115"/><ellipse cx="385.5" cy="131" fill="#A9DCDF" rx="11" ry="11" style="stroke:#A80036;stroke-width:1.0;"/><path d="M385.6094,126.3438 L384.4531,131.4219 L386.7813,131.4219 L385.6094,126.3438 Z M384.125,124.1094 L387.1094,124.1094 L390.4688,136.5 L388.0156,136.5 L387.25,133.4375 L383.9688,133.4375 L383.2188,136.5 L380.7813,136.5 L384.125,124.1094 Z " fill="#000000"/><text fill="#000000" font-family="sans-serif" font-size="12" font-style="italic" lengthAdjust="spacing" textLength="118" x="399.5" y="135.1543">sync_context_base</text><line style="stroke:#A80036;stroke-width:1.5;" x1="371.5" x2="519.5" y1="147" y2="147"/><line style="stroke:#A80036;stroke-width:1.5;" x1="371.5" x2="519.5" y1="155" y2="155"/><!--MD5=[b843aaaceb8acb1ba0ba73dd596d25c3]
class local_async_context_base--><rect codeLine="8" fill="#FEFECE" filter="url(#f7zugn3v6mtd9)" height="48" id="local_async_context_base" style="stroke:#A80036;stroke-width:1.5;" width="193" x="747" y="115"/><ellipse cx="762" cy="131" fill="#A9DCDF" rx="11" ry="11" style="stroke:#A80036;stroke-width:1.0;"/><path d="M762.1094,126.3438 L760.9531,131.4219 L763.2813,131.4219 L762.1094,126.3438 Z M760.625,124.1094 L763.6094,124.1094 L766.9688,136.5 L764.5156,136.5 L763.75,133.4375 L760.4688,133.4375 L759.7188,136.5 L757.2813,136.5 L760.625,124.1094 Z " fill="#000000"/><text fill="#000000" font-family="sans-serif" font-size="12" font-style="italic" lengthAdjust="spacing" textLength="161" x="776" y="135.1543">local_async_context_base</text><line style="stroke:#A80036;stroke-width:1.5;" x1="748" x2="939" y1="147" y2="147"/><line style="stroke:#A80036;stroke-width:1.5;" x1="748" x2="939" y1="155" y2="155"/><!--MD5=[e27d6924625c66ee7d7b378c8b683768]
class testing_request_context\n<<final>>--><rect fill="#FEFECE" filter="url(#f7zugn3v6mtd9)" height="53.9375" id="testing_request_context\n&lt;&lt;final&gt;&gt;" style="stroke:#A80036;stroke-width:1.5;" width="184" x="452.5" y="223"/><ellipse cx="467.5" cy="241.9688" fill="#ADD1B2" rx="11" ry="11" style="stroke:#A80036;stroke-width:1.0;"/><path d="M470.4688,247.6094 Q469.8906,247.9063 469.25,248.0469 Q468.6094,248.2031 467.9063,248.2031 Q465.4063,248.2031 464.0781,246.5625 Q462.7656,244.9063 462.7656,241.7813 Q462.7656,238.6563 464.0781,237 Q465.4063,235.3438 467.9063,235.3438 Q468.6094,235.3438 469.25,235.5 Q469.9063,235.6563 470.4688,235.9531 L470.4688,238.6719 Q469.8438,238.0938 469.25,237.8281 Q468.6563,237.5469 468.0313,237.5469 Q466.6875,237.5469 466,238.625 Q465.3125,239.6875 465.3125,241.7813 Q465.3125,243.875 466,244.9531 Q466.6875,246.0156 468.0313,246.0156 Q468.6563,246.0156 469.25,245.75 Q469.8438,245.4688 470.4688,244.8906 L470.4688,247.6094 Z " fill="#000000"/><text fill="#000000" font-family="sans-serif" font-size="12" lengthAdjust="spacing" textLength="152" x="481.5" y="239.1387">testing_request_context</text><text fill="#000000" font-family="sans-serif" font-size="12" lengthAdjust="spacing" textLength="66" x="524.5" y="253.1074">&lt;&lt;final&gt;&gt;</text><line style="stroke:#A80036;stroke-width:1.5;" x1="453.5" x2="635.5" y1="260.9375" y2="260.9375"/><line style="stroke:#A80036;stroke-width:1.5;" x1="453.5" x2="635.5" y1="268.9375" y2="268.9375"/><!--MD5=[378c3f1e1ba8cb099cc96f40e69e5985]
class thinknode_request_context\n<<final>>--><rect fill="#FEFECE" filter="url(#f7zugn3v6mtd9)" height="53.9375" id="thinknode_request_context\n&lt;&lt;final&gt;&gt;" style="stroke:#A80036;stroke-width:1.5;" width="203" x="214" y="223"/><ellipse cx="229" cy="241.9688" fill="#ADD1B2" rx="11" ry="11" style="stroke:#A80036;stroke-width:1.0;"/><path d="M231.9688,247.6094 Q231.3906,247.9063 230.75,248.0469 Q230.1094,248.2031 229.4063,248.2031 Q226.9063,248.2031 225.5781,246.5625 Q224.2656,244.9063 224.2656,241.7813 Q224.2656,238.6563 225.5781,237 Q226.9063,235.3438 229.4063,235.3438 Q230.1094,235.3438 230.75,235.5 Q231.4063,235.6563 231.9688,235.9531 L231.9688,238.6719 Q231.3438,238.0938 230.75,237.8281 Q230.1563,237.5469 229.5313,237.5469 Q228.1875,237.5469 227.5,238.625 Q226.8125,239.6875 226.8125,241.7813 Q226.8125,243.875 227.5,244.9531 Q228.1875,246.0156 229.5313,246.0156 Q230.1563,246.0156 230.75,245.75 Q231.3438,245.4688 231.9688,244.8906 L231.9688,247.6094 Z " fill="#000000"/><text fill="#000000" font-family="sans-serif" font-size="12" lengthAdjust="spacing" textLength="171" x="243" y="239.1387">thinknode_request_context</text><text fill="#000000" font-family="sans-serif" font-size="12" lengthAdjust="spacing" textLength="66" x="295.5" y="253.1074">&lt;&lt;final&gt;&gt;</text><line style="stroke:#A80036;stroke-width:1.5;" x1="215" x2="416" y1="260.9375" y2="260.9375"/><line style="stroke:#A80036;stroke-width:1.5;" x1="215" x2="416" y1="268.9375" y2="268.9375"/><!--MD5=[3a261dc5229177372f8f27f116d83491]
class local_atst_context\n<<final>>--><rect fill="#FEFECE" filter="url(#f7zugn3v6mtd9)" height="53.9375" id="local_atst_context\n&lt;&lt;final&gt;&gt;" style="stroke:#A80036;stroke-width:1.5;" width="145" x="771" y="223"/><ellipse cx="786" cy="241.9688" fill="#ADD1B2" rx="11" ry="11" style="stroke:#A80036;stroke-width:1.0;"/><path d="M788.9688,247.6094 Q788.3906,247.9063 787.75,248.0469 Q787.1094,248.2031 786.4063,248.2031 Q783.9063,248.2031 782.5781,246.5625 Q781.2656,244.9063 781.2656,241.7813 Q781.2656,238.6563 782.5781,237 Q783.9063,235.3438 786.4063,235.3438 Q787.1094,235.3438 787.75,235.5 Q788.4063,235.6563 788.9688,235.9531 L788.9688,238.6719 Q788.3438,238.0938 787.75,237.8281 Q787.1563,237.5469 786.5313,237.5469 Q785.1875,237.5469 784.5,238.625 Q783.8125,239.6875 783.8125,241.7813 Q783.8125,243.875 784.5,244.9531 Q785.1875,246.0156 786.5313,246.0156 Q787.1563,246.0156 787.75,245.75 Q788.3438,245.4688 788.9688,244.8906 L788.9688,247.6094 Z " fill="#000000"/><text fill="#000000" font-family="sans-serif" font-size="12" lengthAdjust="spacing" textLength="113" x="800" y="239.1387">local_atst_context</text><text fill="#000000" font-family="sans-serif" font-size="12" lengthAdjust="spacing" textLength="66" x="823.5" y="253.1074">&lt;&lt;final&gt;&gt;</text><line style="stroke:#A80036;stroke-width:1.5;" x1="772" x2="915" y1="260.9375" y2="260.9375"/><line style="stroke:#A80036;stroke-width:1.5;" x1="772" x2="915" y1="268.9375" y2="268.9375"/><!--MD5=[04b68e8b37c014bc49f29b4db15c498a]
reverse link local_context_intf to sync_context_base--><path codeLine="10" d="M167.5,57.92 C229.78,75.86 311.72,99.47 370.48,116.39 " fill="none" id="local_context_intf-backto-sync_context_base" style="stroke:#A80036;stroke-width:1.0;"/><polygon fill="none" points="165.3,64.57,148.02,52.31,169.17,51.12,165.3,64.57" style="stroke:#A80036;stroke-width:1.0;"/><!--MD5=[075aab296905c46a45a15ec39dbaf0ff]
reverse link remote_context_intf to sync_context_base--><path codeLine="11" d="M318.99,65.12 C347.03,81.27 380.06,100.3 405.34,114.86 " fill="none" id="remote_context_intf-backto-sync_context_base" style="stroke:#A80036;stroke-width:1.0;"/><polygon fill="none" points="315.26,71.05,301.43,55,322.25,58.92,315.26,71.05" style="stroke:#A80036;stroke-width:1.0;"/><!--MD5=[ce4917747a838ebed655f07aaeea8f2c]
reverse link sync_context_intf to sync_context_base--><path codeLine="12" d="M445.5,75.02 C445.5,88.58 445.5,103.04 445.5,114.68 " fill="none" id="sync_context_intf-backto-sync_context_base" style="stroke:#A80036;stroke-width:1.0;"/><polygon fill="none" points="438.5,75,445.5,55,452.5,75,438.5,75" style="stroke:#A80036;stroke-width:1.0;"/><!--MD5=[f8465572189721b464168098fea14d00]
reverse link caching_context_intf to sync_context_base--><path codeLine="13" d="M573.38,65.12 C545.05,81.27 511.66,100.3 486.1,114.86 " fill="none" id="caching_context_intf-backto-sync_context_base" style="stroke:#A80036;stroke-width:1.0;"/><polygon fill="none" points="570.3,58.82,591.14,55,577.23,70.98,570.3,58.82" style="stroke:#A80036;stroke-width:1.0;"/><!--MD5=[cbecb6daeafc8a2a57ed7980854d8264]
reverse link introspective_context_intf to sync_context_base--><path codeLine="14" d="M737.49,60.23 C669.13,78.44 581.89,101.68 520.63,117.99 " fill="none" id="introspective_context_intf-backto-sync_context_base" style="stroke:#A80036;stroke-width:1.0;"/><polygon fill="none" points="736.01,53.38,757.14,55,739.62,66.91,736.01,53.38" style="stroke:#A80036;stroke-width:1.0;"/><!--MD5=[9e12642b2bc208c642ae343311dc51a1]
reverse link sync_context_base to testing_request_context\n<<final>>--><path codeLine="16" d="M480.21,178.21 C493.62,192.98 508.62,209.49 520.76,222.86 " fill="none" id="sync_context_base-backto-testing_request_context\n&lt;&lt;final&gt;&gt;" style="stroke:#A80036;stroke-width:1.0;"/><polygon fill="none" points="474.76,182.63,466.5,163.12,485.12,173.21,474.76,182.63" style="stroke:#A80036;stroke-width:1.0;"/><!--MD5=[45a081784b2725cc59118037e90696f0]
reverse link sync_context_base to thinknode_request_context\n<<final>>--><path codeLine="17" d="M402.44,176.11 C384.21,191.39 363.38,208.85 346.68,222.86 " fill="none" id="sync_context_base-backto-thinknode_request_context\n&lt;&lt;final&gt;&gt;" style="stroke:#A80036;stroke-width:1.0;"/><polygon fill="none" points="398.11,170.6,417.93,163.12,407.1,181.33,398.11,170.6" style="stroke:#A80036;stroke-width:1.0;"/><!--MD5=[9567f52af1d8f4759b15d1e0e054a83f]
reverse link local_async_context_intf to local_async_context_base--><path codeLine="19" d="M999.72,63.74 C965.14,80.18 923.69,99.88 892.18,114.86 " fill="none" id="local_async_context_intf-backto-local_async_context_base" style="stroke:#A80036;stroke-width:1.0;"/><polygon fill="none" points="997.04,57.26,1018.11,55,1003.05,69.91,997.04,57.26" style="stroke:#A80036;stroke-width:1.0;"/><!--MD5=[3c996c793eed4e5c0a9581258aae782b]
reverse link caching_context_intf to local_async_context_base--><path codeLine="20" d="M695.44,63.97 C728.22,80.36 767.4,99.95 797.22,114.86 " fill="none" id="caching_context_intf-backto-local_async_context_base" style="stroke:#A80036;stroke-width:1.0;"/><polygon fill="none" points="692.26,70.21,677.5,55,698.52,57.68,692.26,70.21" style="stroke:#A80036;stroke-width:1.0;"/><!--MD5=[8b73a426d77f460ee68842146aa5f5cf]
reverse link introspective_context_intf to local_async_context_base--><path codeLine="21" d="M843.5,75.02 C843.5,88.58 843.5,103.04 843.5,114.68 " fill="none" id="introspective_context_intf-backto-local_async_context_base" style="stroke:#A80036;stroke-width:1.0;"/><polygon fill="none" points="836.5,75,843.5,55,850.5,75,836.5,75" style="stroke:#A80036;stroke-width:1.0;"/><!--MD5=[6e03a129bc4bbb7e3b3e838e24c5639a]
reverse link local_async_context_base to local_atst_context\n<<final>>--><path codeLine="23" d="M843.5,183.46 C843.5,196.8 843.5,211.06 843.5,222.86 " fill="none" id="local_async_context_base-backto-local_atst_context\n&lt;&lt;final&gt;&gt;" style="stroke:#A80036;stroke-width:1.0;"/><polygon fill="none" points="836.5,183.12,843.5,163.12,850.5,183.12,836.5,183.12" style="stroke:#A80036;stroke-width:1.0;"/><!--MD5=[7355116ee3dc3d6b48698ac177c72f39]
@startuml
interface local_context_intf
interface remote_context_intf
interface sync_context_intf
interface caching_context_intf
interface introspective_context_intf
interface local_async_context_intf
abstract sync_context_base
abstract local_async_context_base

local_context_intf <|- - sync_context_base
remote_context_intf <|- - sync_context_base
sync_context_intf <|- - sync_context_base
caching_context_intf <|- - sync_context_base
introspective_context_intf <|- - sync_context_base

sync_context_base <|- - "testing_request_context\n<<final>>"
sync_context_base <|- - "thinknode_request_context\n<<final>>"

local_async_context_intf <|- - local_async_context_base
caching_context_intf <|- - local_async_context_base
introspective_context_intf <|- - local_async_context_base

local_async_context_base <|- - "local_atst_context\n<<final>>"
@enduml

PlantUML version 1.2022.0(Tue Jan 11 17:16:42 CET 2022)
(GPL source distribution)
Java Runtime: OpenJDK Runtime Environment
JVM: OpenJDK 64-Bit Server VM
Default Encoding: UTF-8
Language: en
Country: null
--></g></svg>