<?xml version="1.0" encoding="UTF-8" standalone="no"?><svg xmlns="http://www.w3.org/2000/svg" xmlns:xlink="http://www.w3.org/1999/xlink" contentScriptType="application/ecmascript" contentStyleType="text/css" height="435px" preserveAspectRatio="none" style="width:684px;height:435px;background:#FFFFFF;" version="1.1" viewBox="0 0 684 435" width="684px" zoomAndPan="magnify"><defs><filter height="300%" id="f1fo8cw4dkj4mj" width="300%" x="-1" y="-1"><feGaussianBlur result="blurOut" stdDeviation="2.0"/><feColorMatrix in="blurOut" result="blurOut2" type="matrix" values="0 0 0 0 0 0 0 0 0 0 0 0 0 0 0 0 0 0 .4 0"/><feOffset dx="4.0" dy="4.0" in="blurOut2" result="blurOut3"/><feBlend in="SourceGraphic" in2="blurOut3" mode="normal"/></filter></defs><g><!--MD5=[d76e791d040e0d2dc7fbba1a21897bcc]
class function_request_erased\n<Value, Props>--><rect fill="#FEFECE" filter="url(#f1fo8cw4dkj4mj)" height="53.9375" id="function_request_erased\n&lt;Value, Props&gt;" style="stroke:#A80036;stroke-width:1.5;" width="188" x="121.5" y="7"/><ellipse cx="136.5" cy="25.9688" fill="#ADD1B2" rx="11" ry="11" style="stroke:#A80036;stroke-width:1.0;"/><path d="M139.4688,31.6094 Q138.8906,31.9063 138.25,32.0469 Q137.6094,32.2031 136.9063,32.2031 Q134.4063,32.2031 133.0781,30.5625 Q131.7656,28.9063 131.7656,25.7813 Q131.7656,22.6563 133.0781,21 Q134.4063,19.3438 136.9063,19.3438 Q137.6094,19.3438 138.25,19.5 Q138.9063,19.6563 139.4688,19.9531 L139.4688,22.6719 Q138.8438,22.0938 138.25,21.8281 Q137.6563,21.5469 137.0313,21.5469 Q135.6875,21.5469 135,22.625 Q134.3125,23.6875 134.3125,25.7813 Q134.3125,27.875 135,28.9531 Q135.6875,30.0156 137.0313,30.0156 Q137.6563,30.0156 138.25,29.75 Q138.8438,29.4688 139.4688,28.8906 L139.4688,31.6094 Z " fill="#000000"/><text fill="#000000" font-family="sans-serif" font-size="12" lengthAdjust="spacing" textLength="156" x="150.5" y="23.1387">function_request_erased</text><text fill="#000000" font-family="sans-serif" font-size="12" lengthAdjust="spacing" textLength="99" x="179" y="37.1074">&lt;Value, Props&gt;</text><line style="stroke:#A80036;stroke-width:1.5;" x1="122.5" x2="308.5" y1="44.9375" y2="44.9375"/><line style="stroke:#A80036;stroke-width:1.5;" x1="122.5" x2="308.5" y1="52.9375" y2="52.9375"/><!--MD5=[06c9bdde844fb136269ba32b472bf03c]
class function_request_intf\n<Value>--><rect codeLine="3" fill="#FEFECE" filter="url(#f1fo8cw4dkj4mj)" height="92.3516" id="function_request_intf\n&lt;Value&gt;" style="stroke:#A80036;stroke-width:1.5;" width="163" x="29" y="122"/><ellipse cx="44" cy="140.9688" fill="#B4A7E5" rx="11" ry="11" style="stroke:#A80036;stroke-width:1.0;"/><path d="M39.9219,136.7344 L39.9219,134.5781 L47.3125,134.5781 L47.3125,136.7344 L44.8438,136.7344 L44.8438,144.8125 L47.3125,144.8125 L47.3125,146.9688 L39.9219,146.9688 L39.9219,144.8125 L42.3906,144.8125 L42.3906,136.7344 L39.9219,136.7344 Z " fill="#000000"/><text fill="#000000" font-family="sans-serif" font-size="12" font-style="italic" lengthAdjust="spacing" textLength="131" x="58" y="138.1387">function_request_intf</text><text fill="#000000" font-family="sans-serif" font-size="12" font-style="italic" lengthAdjust="spacing" textLength="55" x="96" y="152.1074">&lt;Value&gt;</text><line style="stroke:#A80036;stroke-width:1.5;" x1="30" x2="191" y1="159.9375" y2="159.9375"/><line style="stroke:#A80036;stroke-width:1.5;" x1="30" x2="191" y1="167.9375" y2="167.9375"/><text fill="#000000" font-family="sans-serif" font-size="11" lengthAdjust="spacing" textLength="56" x="35" y="182.1479">get_uuid()</text><text fill="#000000" font-family="sans-serif" font-size="11" lengthAdjust="spacing" textLength="82" x="35" y="194.9526">resolve_sync()</text><text fill="#000000" font-family="sans-serif" font-size="11" lengthAdjust="spacing" textLength="89" x="35" y="207.7573">resolve_async()</text><!--MD5=[b6b1ccf2d7291a33ce0b29bd41bc21c0]
class function_request_impl\n<Value, AsCoro, Function, Args>--><rect fill="#FEFECE" filter="url(#f1fo8cw4dkj4mj)" height="130.7656" id="function_request_impl\n&lt;Value, AsCoro, Function, Args&gt;" style="stroke:#A80036;stroke-width:1.5;" width="237" x="7" y="291"/><ellipse cx="22" cy="309.9688" fill="#ADD1B2" rx="11" ry="11" style="stroke:#A80036;stroke-width:1.0;"/><path d="M24.9688,315.6094 Q24.3906,315.9063 23.75,316.0469 Q23.1094,316.2031 22.4063,316.2031 Q19.9063,316.2031 18.5781,314.5625 Q17.2656,312.9063 17.2656,309.7813 Q17.2656,306.6563 18.5781,305 Q19.9063,303.3438 22.4063,303.3438 Q23.1094,303.3438 23.75,303.5 Q24.4063,303.6563 24.9688,303.9531 L24.9688,306.6719 Q24.3438,306.0938 23.75,305.8281 Q23.1563,305.5469 22.5313,305.5469 Q21.1875,305.5469 20.5,306.625 Q19.8125,307.6875 19.8125,309.7813 Q19.8125,311.875 20.5,312.9531 Q21.1875,314.0156 22.5313,314.0156 Q23.1563,314.0156 23.75,313.75 Q24.3438,313.4688 24.9688,312.8906 L24.9688,315.6094 Z " fill="#000000"/><text fill="#000000" font-family="sans-serif" font-size="12" lengthAdjust="spacing" textLength="137" x="70" y="307.1387">function_request_impl</text><text fill="#000000" font-family="sans-serif" font-size="12" lengthAdjust="spacing" textLength="205" x="36" y="321.1074">&lt;Value, AsCoro, Function, Args&gt;</text><line style="stroke:#A80036;stroke-width:1.5;" x1="8" x2="243" y1="328.9375" y2="328.9375"/><text fill="#000000" font-family="sans-serif" font-size="11" lengthAdjust="spacing" textLength="102" x="13" y="343.1479">request_uuid uuid</text><text fill="#000000" font-family="sans-serif" font-size="11" lengthAdjust="spacing" textLength="96" x="13" y="355.9526">Function function</text><text fill="#000000" font-family="sans-serif" font-size="11" lengthAdjust="spacing" textLength="56" x="13" y="368.7573">Args args</text><line style="stroke:#A80036;stroke-width:1.5;" x1="8" x2="243" y1="375.3516" y2="375.3516"/><text fill="#000000" font-family="sans-serif" font-size="11" lengthAdjust="spacing" textLength="56" x="13" y="389.562">get_uuid()</text><text fill="#000000" font-family="sans-serif" font-size="11" lengthAdjust="spacing" textLength="82" x="13" y="402.3667">resolve_sync()</text><text fill="#000000" font-family="sans-serif" font-size="11" lengthAdjust="spacing" textLength="89" x="13" y="415.1714">resolve_async()</text><!--MD5=[5c265de75ebb8f3b58e188d5ac317ea8]
class cereal_functions_registry--><rect codeLine="19" fill="#FEFECE" filter="url(#f1fo8cw4dkj4mj)" height="53.9375" id="cereal_functions_registry" style="stroke:#A80036;stroke-width:1.5;" width="188" x="227.5" y="141"/><ellipse cx="242.5" cy="159.9688" fill="#ADD1B2" rx="11" ry="11" style="stroke:#A80036;stroke-width:1.0;"/><path d="M245.4688,165.6094 Q244.8906,165.9063 244.25,166.0469 Q243.6094,166.2031 242.9063,166.2031 Q240.4063,166.2031 239.0781,164.5625 Q237.7656,162.9063 237.7656,159.7813 Q237.7656,156.6563 239.0781,155 Q240.4063,153.3438 242.9063,153.3438 Q243.6094,153.3438 244.25,153.5 Q244.9063,153.6563 245.4688,153.9531 L245.4688,156.6719 Q244.8438,156.0938 244.25,155.8281 Q243.6563,155.5469 243.0313,155.5469 Q241.6875,155.5469 241,156.625 Q240.3125,157.6875 240.3125,159.7813 Q240.3125,161.875 241,162.9531 Q241.6875,164.0156 243.0313,164.0156 Q243.6563,164.0156 244.25,163.75 Q244.8438,163.4688 245.4688,162.8906 L245.4688,165.6094 Z " fill="#000000"/><text fill="#000000" font-family="sans-serif" font-size="12" font-style="italic" lengthAdjust="spacing" textLength="71" x="299" y="157.1387">«singleton»</text><text fill="#000000" font-family="sans-serif" font-size="12" lengthAdjust="spacing" textLength="156" x="256.5" y="171.1074">cereal_functions_registry</text><line style="stroke:#A80036;stroke-width:1.5;" x1="228.5" x2="414.5" y1="178.9375" y2="178.9375"/><line style="stroke:#A80036;stroke-width:1.5;" x1="228.5" x2="414.5" y1="186.9375" y2="186.9375"/><!--MD5=[0eddba1599c5a10b36de76ef82c50851]
class entry_t--><rect fill="#FEFECE" filter="url(#f1fo8cw4dkj4mj)" height="86.4141" id="entry_t" style="stroke:#A80036;stroke-width:1.5;" width="75" x="281" y="313.5"/><ellipse cx="296" cy="329.5" fill="#ADD1B2" rx="11" ry="11" style="stroke:#A80036;stroke-width:1.0;"/><path d="M298.9688,335.1406 Q298.3906,335.4375 297.75,335.5781 Q297.1094,335.7344 296.4063,335.7344 Q293.9063,335.7344 292.5781,334.0938 Q291.2656,332.4375 291.2656,329.3125 Q291.2656,326.1875 292.5781,324.5313 Q293.9063,322.875 296.4063,322.875 Q297.1094,322.875 297.75,323.0313 Q298.4063,323.1875 298.9688,323.4844 L298.9688,326.2031 Q298.3438,325.625 297.75,325.3594 Q297.1563,325.0781 296.5313,325.0781 Q295.1875,325.0781 294.5,326.1563 Q293.8125,327.2188 293.8125,329.3125 Q293.8125,331.4063 294.5,332.4844 Q295.1875,333.5469 296.5313,333.5469 Q297.1563,333.5469 297.75,333.2813 Q298.3438,333 298.9688,332.4219 L298.9688,335.1406 Z " fill="#000000"/><text fill="#000000" font-family="sans-serif" font-size="12" lengthAdjust="spacing" textLength="43" x="310" y="333.6543">entry_t</text><line style="stroke:#A80036;stroke-width:1.5;" x1="282" x2="355" y1="345.5" y2="345.5"/><line style="stroke:#A80036;stroke-width:1.5;" x1="282" x2="355" y1="353.5" y2="353.5"/><text fill="#000000" font-family="sans-serif" font-size="11" lengthAdjust="spacing" textLength="44" x="287" y="367.7104">create()</text><text fill="#000000" font-family="sans-serif" font-size="11" lengthAdjust="spacing" textLength="35" x="287" y="380.5151">save()</text><text fill="#000000" font-family="sans-serif" font-size="11" lengthAdjust="spacing" textLength="32" x="287" y="393.3198">load()</text><path d="M391.5,321.5 L391.5,330.0664 L331,363.9023 L391.5,338.0664 L391.5,346.6328 A0,0 0 0 0 391.5,346.6328 L660.5,346.6328 A0,0 0 0 0 660.5,346.6328 L660.5,331.5 L650.5,321.5 L391.5,321.5 A0,0 0 0 0 391.5,321.5 " fill="#FBFB77" filter="url(#f1fo8cw4dkj4mj)" style="stroke:#A80036;stroke-width:1.0;"/><path d="M650.5,321.5 L650.5,331.5 L660.5,331.5 L650.5,321.5 " fill="#FBFB77" style="stroke:#A80036;stroke-width:1.0;"/><text fill="#000000" font-family="sans-serif" font-size="13" lengthAdjust="spacing" textLength="248" x="397.5" y="338.5669">creates a function_request_impl object</text><path d="M391.5,356.6328 L391.5,365.1992 L319,389.5117 L391.5,373.1992 L391.5,381.7656 A0,0 0 0 0 391.5,381.7656 L675.5,381.7656 A0,0 0 0 0 675.5,381.7656 L675.5,366.6328 L665.5,356.6328 L391.5,356.6328 A0,0 0 0 0 391.5,356.6328 " fill="#FBFB77" filter="url(#f1fo8cw4dkj4mj)" style="stroke:#A80036;stroke-width:1.0;"/><path d="M665.5,356.6328 L665.5,366.6328 L675.5,366.6328 L665.5,356.6328 " fill="#FBFB77" style="stroke:#A80036;stroke-width:1.0;"/><text fill="#000000" font-family="sans-serif" font-size="13" lengthAdjust="spacing" textLength="263" x="397.5" y="373.6997">populates a function_request_impl object</text><!--MD5=[662b7108436df721f0b5e3bb63b66b47]
reverse link function_request_erased\n<Value, Props> to function_request_intf\n<Value>--><path codeLine="1" d="M186.54,71.41 C174.1,87.05 159.42,105.5 146.3,121.99 " fill="none" id="function_request_erased\n&lt;Value, Props&gt;-backto-function_request_intf\n&lt;Value&gt;" style="stroke:#A80036;stroke-width:1.0;"/><polygon fill="#A80036" points="194.76,61.08,187.8932,63.2818,187.2846,70.4671,194.1513,68.2654,194.76,61.08" style="stroke:#A80036;stroke-width:1.0;"/><!--MD5=[7da353ad2615e4be579ba92aaae835ef]
reverse link function_request_intf\n<Value> to function_request_impl\n<Value, AsCoro, Function, Args>--><path codeLine="8" d="M115.75,234.31 C117.22,252.58 118.82,272.43 120.29,290.68 " fill="none" id="function_request_intf\n&lt;Value&gt;-backto-function_request_impl\n&lt;Value, AsCoro, Function, Args&gt;" style="stroke:#A80036;stroke-width:1.0;"/><polygon fill="none" points="108.76,234.64,114.13,214.15,122.71,233.52,108.76,234.64" style="stroke:#A80036;stroke-width:1.0;"/><!--MD5=[475553441b0635edab41d8d945c7c5d5]
link function_request_erased\n<Value, Props> to cereal_functions_registry--><path codeLine="17" d="M236.44,61.08 C253.94,82.86 278.9,113.95 297.25,136.81 " fill="none" id="function_request_erased\n&lt;Value, Props&gt;-to-cereal_functions_registry" style="stroke:#A80036;stroke-width:1.0;"/><polygon fill="#A80036" points="300.6,140.98,298.0885,131.4568,297.4713,137.0798,291.8482,136.4627,300.6,140.98" style="stroke:#A80036;stroke-width:1.0;"/><!--MD5=[62529cf59352cf5ff23c8f48cad77652]
reverse link cereal_functions_registry to entry_t--><path codeLine="20" d="M320.86,208.57 C320.37,239.39 319.68,282.08 319.18,313.5 " fill="none" id="cereal_functions_registry-backto-entry_t" style="stroke:#A80036;stroke-width:1.0;"/><polygon fill="#A80036" points="321.08,195.33,316.9817,201.2633,320.8822,207.3284,324.9806,201.3951,321.08,195.33" style="stroke:#A80036;stroke-width:1.0;"/><text fill="#000000" font-family="sans-serif" font-size="13" lengthAdjust="spacing" textLength="33" x="320.5" y="257.0669">UUID</text><!--MD5=[bdee3749664132ede025bdd6deeb13f7]
reverse link function_request_impl\n<Value, AsCoro, Function, Args> to entry_t--><path codeLine="24" d="M249.38,356.5 C259.85,356.5 270.32,356.5 280.79,356.5 " fill="none" id="function_request_impl\n&lt;Value, AsCoro, Function, Args&gt;-backto-entry_t" style="stroke:#A80036;stroke-width:1.0;stroke-dasharray:7.0,7.0;"/><polygon fill="#A80036" points="244.24,356.5,253.24,360.5,249.24,356.5,253.24,352.5,244.24,356.5" style="stroke:#A80036;stroke-width:1.0;"/><!--MD5=[1488d5d3ec21d20c680a395fd0ec8d24]
link entry_t to entry_t$$$RIGHT--><!--MD5=[fdfe82beae11d45e2cd44f4022adf4c1]
@startuml
"function_request_erased\n<Value, Props>" *- - "function_request_intf\n<Value>"

interface "function_request_intf\n<Value>"
"function_request_intf\n<Value>" : get_uuid()
"function_request_intf\n<Value>" : resolve_sync()
"function_request_intf\n<Value>" : resolve_async()

"function_request_intf\n<Value>" <|- - "function_request_impl\n<Value, AsCoro, Function, Args>"

"function_request_impl\n<Value, AsCoro, Function, Args>" : get_uuid()
"function_request_impl\n<Value, AsCoro, Function, Args>" : resolve_sync()
"function_request_impl\n<Value, AsCoro, Function, Args>" : resolve_async()
"function_request_impl\n<Value, AsCoro, Function, Args>" : request_uuid uuid
"function_request_impl\n<Value, AsCoro, Function, Args>" : Function function
"function_request_impl\n<Value, AsCoro, Function, Args>" : Args args

"function_request_erased\n<Value, Props>" - -> cereal_functions_registry

class cereal_functions_registry << singleton >>
cereal_functions_registry *- - entry_t : UUID
entry_t : create()
entry_t : save()
entry_t : load()
entry_t ..left> "function_request_impl\n<Value, AsCoro, Function, Args>"
note right of entry_t::create
    creates a function_request_impl object
end note
note right of entry_t::load
    populates a function_request_impl object
end note
@enduml

PlantUML version 1.2022.0(Tue Jan 11 17:16:42 CET 2022)
(GPL source distribution)
Java Runtime: OpenJDK Runtime Environment
JVM: OpenJDK 64-Bit Server VM
Default Encoding: UTF-8
Language: en
Country: null
--></g></svg>