<?xml version="1.0" encoding="UTF-8" standalone="no"?><svg xmlns="http://www.w3.org/2000/svg" xmlns:xlink="http://www.w3.org/1999/xlink" contentScriptType="application/ecmascript" contentStyleType="text/css" height="398px" preserveAspectRatio="none" style="width:548px;height:398px;background:#FFFFFF;" version="1.1" viewBox="0 0 548 398" width="548px" zoomAndPan="magnify"><defs><filter height="300%" id="f1dx07tv4gsyl4" width="300%" x="-1" y="-1"><feGaussianBlur result="blurOut" stdDeviation="2.0"/><feColorMatrix in="blurOut" result="blurOut2" type="matrix" values="0 0 0 0 0 0 0 0 0 0 0 0 0 0 0 0 0 0 .4 0"/><feOffset dx="4.0" dy="4.0" in="blurOut2" result="blurOut3"/><feBlend in="SourceGraphic" in2="blurOut3" mode="normal"/></filter></defs><g><!--MD5=[8e85cb7ede8d8897e5c06a39214fda47]
class remote_async_context_intf--><rect codeLine="1" fill="#FEFECE" filter="url(#f1dx07tv4gsyl4)" height="48" id="remote_async_context_intf" style="stroke:#A80036;stroke-width:1.5;" width="199" x="163" y="7"/><ellipse cx="178" cy="23" fill="#B4A7E5" rx="11" ry="11" style="stroke:#A80036;stroke-width:1.0;"/><path d="M173.9219,18.7656 L173.9219,16.6094 L181.3125,16.6094 L181.3125,18.7656 L178.8438,18.7656 L178.8438,26.8438 L181.3125,26.8438 L181.3125,29 L173.9219,29 L173.9219,26.8438 L176.3906,26.8438 L176.3906,18.7656 L173.9219,18.7656 Z " fill="#000000"/><text fill="#000000" font-family="sans-serif" font-size="12" font-style="italic" lengthAdjust="spacing" textLength="167" x="192" y="27.1543">remote_async_context_intf</text><line style="stroke:#A80036;stroke-width:1.5;" x1="164" x2="361" y1="39" y2="39"/><line style="stroke:#A80036;stroke-width:1.5;" x1="164" x2="361" y1="47" y2="47"/><!--MD5=[0b09751258244d53f4c13fb4e51d9308]
class proxy_async_context_base--><rect codeLine="2" fill="#FEFECE" filter="url(#f1dx07tv4gsyl4)" height="48" id="proxy_async_context_base" style="stroke:#A80036;stroke-width:1.5;" width="199" x="163" y="115"/><ellipse cx="178" cy="131" fill="#A9DCDF" rx="11" ry="11" style="stroke:#A80036;stroke-width:1.0;"/><path d="M178.1094,126.3438 L176.9531,131.4219 L179.2813,131.4219 L178.1094,126.3438 Z M176.625,124.1094 L179.6094,124.1094 L182.9688,136.5 L180.5156,136.5 L179.75,133.4375 L176.4688,133.4375 L175.7188,136.5 L173.2813,136.5 L176.625,124.1094 Z " fill="#000000"/><text fill="#000000" font-family="sans-serif" font-size="12" font-style="italic" lengthAdjust="spacing" textLength="167" x="192" y="135.1543">proxy_async_context_base</text><line style="stroke:#A80036;stroke-width:1.5;" x1="164" x2="361" y1="147" y2="147"/><line style="stroke:#A80036;stroke-width:1.5;" x1="164" x2="361" y1="155" y2="155"/><!--MD5=[d5bbfd29b91a7515542699431d86305a]
class root_proxy_async_context_base--><rect codeLine="3" fill="#FEFECE" filter="url(#f1dx07tv4gsyl4)" height="48" id="root_proxy_async_context_base" style="stroke:#A80036;stroke-width:1.5;" width="231" x="7" y="223"/><ellipse cx="22" cy="239" fill="#A9DCDF" rx="11" ry="11" style="stroke:#A80036;stroke-width:1.0;"/><path d="M22.1094,234.3438 L20.9531,239.4219 L23.2813,239.4219 L22.1094,234.3438 Z M20.625,232.1094 L23.6094,232.1094 L26.9688,244.5 L24.5156,244.5 L23.75,241.4375 L20.4688,241.4375 L19.7188,244.5 L17.2813,244.5 L20.625,232.1094 Z " fill="#000000"/><text fill="#000000" font-family="sans-serif" font-size="12" font-style="italic" lengthAdjust="spacing" textLength="199" x="36" y="243.1543">root_proxy_async_context_base</text><line style="stroke:#A80036;stroke-width:1.5;" x1="8" x2="237" y1="255" y2="255"/><line style="stroke:#A80036;stroke-width:1.5;" x1="8" x2="237" y1="263" y2="263"/><!--MD5=[e1c4e448fdc8197498f913b59a457aac]
class non_root_proxy_async_context_base--><rect codeLine="4" fill="#FEFECE" filter="url(#f1dx07tv4gsyl4)" height="48" id="non_root_proxy_async_context_base" style="stroke:#A80036;stroke-width:1.5;" width="261" x="273" y="223"/><ellipse cx="288" cy="239" fill="#A9DCDF" rx="11" ry="11" style="stroke:#A80036;stroke-width:1.0;"/><path d="M288.1094,234.3438 L286.9531,239.4219 L289.2813,239.4219 L288.1094,234.3438 Z M286.625,232.1094 L289.6094,232.1094 L292.9688,244.5 L290.5156,244.5 L289.75,241.4375 L286.4688,241.4375 L285.7188,244.5 L283.2813,244.5 L286.625,232.1094 Z " fill="#000000"/><text fill="#000000" font-family="sans-serif" font-size="12" font-style="italic" lengthAdjust="spacing" textLength="229" x="302" y="243.1543">non_root_proxy_async_context_base</text><line style="stroke:#A80036;stroke-width:1.5;" x1="274" x2="533" y1="255" y2="255"/><line style="stroke:#A80036;stroke-width:1.5;" x1="274" x2="533" y1="263" y2="263"/><!--MD5=[e74b96a185a374ab3189ad7282051756]
class root_proxy_atst_context\n<<final>>--><rect fill="#FEFECE" filter="url(#f1dx07tv4gsyl4)" height="53.9375" id="root_proxy_atst_context\n&lt;&lt;final&gt;&gt;" style="stroke:#A80036;stroke-width:1.5;" width="181" x="32" y="331"/><ellipse cx="47" cy="349.9688" fill="#ADD1B2" rx="11" ry="11" style="stroke:#A80036;stroke-width:1.0;"/><path d="M49.9688,355.6094 Q49.3906,355.9063 48.75,356.0469 Q48.1094,356.2031 47.4063,356.2031 Q44.9063,356.2031 43.5781,354.5625 Q42.2656,352.9063 42.2656,349.7813 Q42.2656,346.6563 43.5781,345 Q44.9063,343.3438 47.4063,343.3438 Q48.1094,343.3438 48.75,343.5 Q49.4063,343.6563 49.9688,343.9531 L49.9688,346.6719 Q49.3438,346.0938 48.75,345.8281 Q48.1563,345.5469 47.5313,345.5469 Q46.1875,345.5469 45.5,346.625 Q44.8125,347.6875 44.8125,349.7813 Q44.8125,351.875 45.5,352.9531 Q46.1875,354.0156 47.5313,354.0156 Q48.1563,354.0156 48.75,353.75 Q49.3438,353.4688 49.9688,352.8906 L49.9688,355.6094 Z " fill="#000000"/><text fill="#000000" font-family="sans-serif" font-size="12" lengthAdjust="spacing" textLength="149" x="61" y="347.1387">root_proxy_atst_context</text><text fill="#000000" font-family="sans-serif" font-size="12" lengthAdjust="spacing" textLength="66" x="102.5" y="361.1074">&lt;&lt;final&gt;&gt;</text><line style="stroke:#A80036;stroke-width:1.5;" x1="33" x2="212" y1="368.9375" y2="368.9375"/><line style="stroke:#A80036;stroke-width:1.5;" x1="33" x2="212" y1="376.9375" y2="376.9375"/><!--MD5=[743e60a75214c2246471ab87088603af]
class non_root_proxy_atst_context\n<<final>>--><rect fill="#FEFECE" filter="url(#f1dx07tv4gsyl4)" height="53.9375" id="non_root_proxy_atst_context\n&lt;&lt;final&gt;&gt;" style="stroke:#A80036;stroke-width:1.5;" width="211" x="298" y="331"/><ellipse cx="313" cy="349.9688" fill="#ADD1B2" rx="11" ry="11" style="stroke:#A80036;stroke-width:1.0;"/><path d="M315.9688,355.6094 Q315.3906,355.9063 314.75,356.0469 Q314.1094,356.2031 313.4063,356.2031 Q310.9063,356.2031 309.5781,354.5625 Q308.2656,352.9063 308.2656,349.7813 Q308.2656,346.6563 309.5781,345 Q310.9063,343.3438 313.4063,343.3438 Q314.1094,343.3438 314.75,343.5 Q315.4063,343.6563 315.9688,343.9531 L315.9688,346.6719 Q315.3438,346.0938 314.75,345.8281 Q314.1563,345.5469 313.5313,345.5469 Q312.1875,345.5469 311.5,346.625 Q310.8125,347.6875 310.8125,349.7813 Q310.8125,351.875 311.5,352.9531 Q312.1875,354.0156 313.5313,354.0156 Q314.1563,354.0156 314.75,353.75 Q315.3438,353.4688 315.9688,352.8906 L315.9688,355.6094 Z " fill="#000000"/><text fill="#000000" font-family="sans-serif" font-size="12" lengthAdjust="spacing" textLength="179" x="327" y="347.1387">non_root_proxy_atst_context</text><text fill="#000000" font-family="sans-serif" font-size="12" lengthAdjust="spacing" textLength="66" x="383.5" y="361.1074">&lt;&lt;final&gt;&gt;</text><line style="stroke:#A80036;stroke-width:1.5;" x1="299" x2="508" y1="368.9375" y2="368.9375"/><line style="stroke:#A80036;stroke-width:1.5;" x1="299" x2="508" y1="376.9375" y2="376.9375"/><!--MD5=[3fdde81305c1a4712c215638760e1a44]
reverse link remote_async_context_intf to proxy_async_context_base--><path codeLine="6" d="M262.5,75.02 C262.5,88.58 262.5,103.04 262.5,114.68 " fill="none" id="remote_async_context_intf-backto-proxy_async_context_base" style="stroke:#A80036;stroke-width:1.0;"/><polygon fill="none" points="255.5,75,262.5,55,269.5,75,255.5,75" style="stroke:#A80036;stroke-width:1.0;"/><!--MD5=[231124a89530b65b235ae64afa6be03d]
reverse link proxy_async_context_base to root_proxy_async_context_base--><path codeLine="7" d="M216.05,175.17 C195.42,190.79 171.7,208.75 153.3,222.68 " fill="none" id="proxy_async_context_base-backto-root_proxy_async_context_base" style="stroke:#A80036;stroke-width:1.0;"/><polygon fill="none" points="211.95,169.49,232.12,163,220.4,180.65,211.95,169.49" style="stroke:#A80036;stroke-width:1.0;"/><!--MD5=[c12d253bf43e3fc83ff5221983148f79]
reverse link proxy_async_context_base to non_root_proxy_async_context_base--><path codeLine="8" d="M309.28,175.17 C330.06,190.79 353.95,208.75 372.48,222.68 " fill="none" id="proxy_async_context_base-backto-non_root_proxy_async_context_base" style="stroke:#A80036;stroke-width:1.0;"/><polygon fill="none" points="304.87,180.61,293.09,163,313.29,169.42,304.87,180.61" style="stroke:#A80036;stroke-width:1.0;"/><!--MD5=[ec30fb7df3da79fbbfe9cede04f20f14]
reverse link root_proxy_async_context_base to root_proxy_atst_context\n<<final>>--><path codeLine="10" d="M122.5,291.46 C122.5,304.8 122.5,319.06 122.5,330.86 " fill="none" id="root_proxy_async_context_base-backto-root_proxy_atst_context\n&lt;&lt;final&gt;&gt;" style="stroke:#A80036;stroke-width:1.0;"/><polygon fill="none" points="115.5,291.12,122.5,271.12,129.5,291.12,115.5,291.12" style="stroke:#A80036;stroke-width:1.0;"/><!--MD5=[648b1c6abab316f420e310718f3ce848]
reverse link non_root_proxy_async_context_base to non_root_proxy_atst_context\n<<final>>--><path codeLine="11" d="M403.5,291.46 C403.5,304.8 403.5,319.06 403.5,330.86 " fill="none" id="non_root_proxy_async_context_base-backto-non_root_proxy_atst_context\n&lt;&lt;final&gt;&gt;" style="stroke:#A80036;stroke-width:1.0;"/><polygon fill="none" points="396.5,291.12,403.5,271.12,410.5,291.12,396.5,291.12" style="stroke:#A80036;stroke-width:1.0;"/><!--MD5=[2962b6f4e6c6f98de09ec260fb4cfb41]
@startuml
interface remote_async_context_intf
abstract proxy_async_context_base
abstract root_proxy_async_context_base
abstract non_root_proxy_async_context_base

remote_async_context_intf <|- - proxy_async_context_base
proxy_async_context_base <|- - root_proxy_async_context_base
proxy_async_context_base <|- - non_root_proxy_async_context_base

root_proxy_async_context_base <|- - "root_proxy_atst_context\n<<final>>"
non_root_proxy_async_context_base <|- - "non_root_proxy_atst_context\n<<final>>"
@enduml

PlantUML version 1.2022.0(Tue Jan 11 17:16:42 CET 2022)
(GPL source distribution)
Java Runtime: OpenJDK Runtime Environment
JVM: OpenJDK 64-Bit Server VM
Default Encoding: UTF-8
Language: en
Country: null
--></g></svg>