<?xml version="1.0" encoding="UTF-8" standalone="no"?><svg xmlns="http://www.w3.org/2000/svg" xmlns:xlink="http://www.w3.org/1999/xlink" contentScriptType="application/ecmascript" contentStyleType="text/css" height="285px" preserveAspectRatio="none" style="width:1136px;height:285px;background:#FFFFFF;" version="1.1" viewBox="0 0 1136 285" width="1136px" zoomAndPan="magnify"><defs><filter height="300%" id="f1jbqgy3gzjmf5" width="300%" x="-1" y="-1"><feGaussianBlur result="blurOut" stdDeviation="2.0"/><feColorMatrix in="blurOut" result="blurOut2" type="matrix" values="0 0 0 0 0 0 0 0 0 0 0 0 0 0 0 0 0 0 .4 0"/><feOffset dx="4.0" dy="4.0" in="blurOut2" result="blurOut3"/><feBlend in="SourceGraphic" in2="blurOut3" mode="normal"/></filter></defs><g><!--MD5=[ea77e87b1daae888150b888a1d4fe52e]
class context_intf--><rect codeLine="1" fill="#FEFECE" filter="url(#f1jbqgy3gzjmf5)" height="48" id="context_intf" style="stroke:#A80036;stroke-width:1.5;" width="106" x="475.5" y="7"/><ellipse cx="490.5" cy="23" fill="#B4A7E5" rx="11" ry="11" style="stroke:#A80036;stroke-width:1.0;"/><path d="M486.4219,18.7656 L486.4219,16.6094 L493.8125,16.6094 L493.8125,18.7656 L491.3438,18.7656 L491.3438,26.8438 L493.8125,26.8438 L493.8125,29 L486.4219,29 L486.4219,26.8438 L488.8906,26.8438 L488.8906,18.7656 L486.4219,18.7656 Z " fill="#000000"/><text fill="#000000" font-family="sans-serif" font-size="12" font-style="italic" lengthAdjust="spacing" textLength="74" x="504.5" y="27.1543">context_intf</text><line style="stroke:#A80036;stroke-width:1.5;" x1="476.5" x2="580.5" y1="39" y2="39"/><line style="stroke:#A80036;stroke-width:1.5;" x1="476.5" x2="580.5" y1="47" y2="47"/><!--MD5=[c87287c4437691fa242a62df8e6034f4]
class local_context_intf--><rect codeLine="2" fill="#FEFECE" filter="url(#f1jbqgy3gzjmf5)" height="48" id="local_context_intf" style="stroke:#A80036;stroke-width:1.5;" width="141" x="7" y="115"/><ellipse cx="22" cy="131" fill="#B4A7E5" rx="11" ry="11" style="stroke:#A80036;stroke-width:1.0;"/><path d="M17.9219,126.7656 L17.9219,124.6094 L25.3125,124.6094 L25.3125,126.7656 L22.8438,126.7656 L22.8438,134.8438 L25.3125,134.8438 L25.3125,137 L17.9219,137 L17.9219,134.8438 L20.3906,134.8438 L20.3906,126.7656 L17.9219,126.7656 Z " fill="#000000"/><text fill="#000000" font-family="sans-serif" font-size="12" font-style="italic" lengthAdjust="spacing" textLength="109" x="36" y="135.1543">local_context_intf</text><line style="stroke:#A80036;stroke-width:1.5;" x1="8" x2="147" y1="147" y2="147"/><line style="stroke:#A80036;stroke-width:1.5;" x1="8" x2="147" y1="155" y2="155"/><!--MD5=[505c6e4448a18ba0247381f875406801]
class remote_context_intf--><rect codeLine="3" fill="#FEFECE" filter="url(#f1jbqgy3gzjmf5)" height="48" id="remote_context_intf" style="stroke:#A80036;stroke-width:1.5;" width="157" x="542" y="115"/><ellipse cx="557" cy="131" fill="#B4A7E5" rx="11" ry="11" style="stroke:#A80036;stroke-width:1.0;"/><path d="M552.9219,126.7656 L552.9219,124.6094 L560.3125,124.6094 L560.3125,126.7656 L557.8438,126.7656 L557.8438,134.8438 L560.3125,134.8438 L560.3125,137 L552.9219,137 L552.9219,134.8438 L555.3906,134.8438 L555.3906,126.7656 L552.9219,126.7656 Z " fill="#000000"/><text fill="#000000" font-family="sans-serif" font-size="12" font-style="italic" lengthAdjust="spacing" textLength="125" x="571" y="135.1543">remote_context_intf</text><line style="stroke:#A80036;stroke-width:1.5;" x1="543" x2="698" y1="147" y2="147"/><line style="stroke:#A80036;stroke-width:1.5;" x1="543" x2="698" y1="155" y2="155"/><!--MD5=[e48426681498b5385ce16a0518d06cc8]
class sync_context_intf--><rect codeLine="4" fill="#FEFECE" filter="url(#f1jbqgy3gzjmf5)" height="48" id="sync_context_intf" style="stroke:#A80036;stroke-width:1.5;" width="140" x="366.5" y="115"/><ellipse cx="381.5" cy="131" fill="#B4A7E5" rx="11" ry="11" style="stroke:#A80036;stroke-width:1.0;"/><path d="M377.4219,126.7656 L377.4219,124.6094 L384.8125,124.6094 L384.8125,126.7656 L382.3438,126.7656 L382.3438,134.8438 L384.8125,134.8438 L384.8125,137 L377.4219,137 L377.4219,134.8438 L379.8906,134.8438 L379.8906,126.7656 L377.4219,126.7656 Z " fill="#000000"/><text fill="#000000" font-family="sans-serif" font-size="12" font-style="italic" lengthAdjust="spacing" textLength="108" x="395.5" y="135.1543">sync_context_intf</text><line style="stroke:#A80036;stroke-width:1.5;" x1="367.5" x2="505.5" y1="147" y2="147"/><line style="stroke:#A80036;stroke-width:1.5;" x1="367.5" x2="505.5" y1="155" y2="155"/><!--MD5=[1dfe308a63a0e15e1fca60007a96b6c8]
class async_context_intf--><rect codeLine="5" fill="#FEFECE" filter="url(#f1jbqgy3gzjmf5)" height="48" id="async_context_intf" style="stroke:#A80036;stroke-width:1.5;" width="148" x="183.5" y="115"/><ellipse cx="198.5" cy="131" fill="#B4A7E5" rx="11" ry="11" style="stroke:#A80036;stroke-width:1.0;"/><path d="M194.4219,126.7656 L194.4219,124.6094 L201.8125,124.6094 L201.8125,126.7656 L199.3438,126.7656 L199.3438,134.8438 L201.8125,134.8438 L201.8125,137 L194.4219,137 L194.4219,134.8438 L196.8906,134.8438 L196.8906,126.7656 L194.4219,126.7656 Z " fill="#000000"/><text fill="#000000" font-family="sans-serif" font-size="12" font-style="italic" lengthAdjust="spacing" textLength="116" x="212.5" y="135.1543">async_context_intf</text><line style="stroke:#A80036;stroke-width:1.5;" x1="184.5" x2="330.5" y1="147" y2="147"/><line style="stroke:#A80036;stroke-width:1.5;" x1="184.5" x2="330.5" y1="155" y2="155"/><!--MD5=[a12a62403bf0eef31525da8930d29b9c]
class local_async_context_intf--><rect codeLine="7" fill="#FEFECE" filter="url(#f1jbqgy3gzjmf5)" height="48" id="local_async_context_intf" style="stroke:#A80036;stroke-width:1.5;" width="183" x="76" y="223"/><ellipse cx="91" cy="239" fill="#B4A7E5" rx="11" ry="11" style="stroke:#A80036;stroke-width:1.0;"/><path d="M86.9219,234.7656 L86.9219,232.6094 L94.3125,232.6094 L94.3125,234.7656 L91.8438,234.7656 L91.8438,242.8438 L94.3125,242.8438 L94.3125,245 L86.9219,245 L86.9219,242.8438 L89.3906,242.8438 L89.3906,234.7656 L86.9219,234.7656 Z " fill="#000000"/><text fill="#000000" font-family="sans-serif" font-size="12" font-style="italic" lengthAdjust="spacing" textLength="151" x="105" y="243.1543">local_async_context_intf</text><line style="stroke:#A80036;stroke-width:1.5;" x1="77" x2="258" y1="255" y2="255"/><line style="stroke:#A80036;stroke-width:1.5;" x1="77" x2="258" y1="263" y2="263"/><!--MD5=[8e85cb7ede8d8897e5c06a39214fda47]
class remote_async_context_intf--><rect codeLine="9" fill="#FEFECE" filter="url(#f1jbqgy3gzjmf5)" height="48" id="remote_async_context_intf" style="stroke:#A80036;stroke-width:1.5;" width="199" x="407" y="223"/><ellipse cx="422" cy="239" fill="#B4A7E5" rx="11" ry="11" style="stroke:#A80036;stroke-width:1.0;"/><path d="M417.9219,234.7656 L417.9219,232.6094 L425.3125,232.6094 L425.3125,234.7656 L422.8438,234.7656 L422.8438,242.8438 L425.3125,242.8438 L425.3125,245 L417.9219,245 L417.9219,242.8438 L420.3906,242.8438 L420.3906,234.7656 L417.9219,234.7656 Z " fill="#000000"/><text fill="#000000" font-family="sans-serif" font-size="12" font-style="italic" lengthAdjust="spacing" textLength="167" x="436" y="243.1543">remote_async_context_intf</text><line style="stroke:#A80036;stroke-width:1.5;" x1="408" x2="605" y1="255" y2="255"/><line style="stroke:#A80036;stroke-width:1.5;" x1="408" x2="605" y1="263" y2="263"/><!--MD5=[5acea78ebbbd4f268528e8b71685ac5a]
class caching_context_intf--><rect codeLine="10" fill="#FEFECE" filter="url(#f1jbqgy3gzjmf5)" height="48" id="caching_context_intf" style="stroke:#A80036;stroke-width:1.5;" width="161" x="734" y="115"/><ellipse cx="749" cy="131" fill="#B4A7E5" rx="11" ry="11" style="stroke:#A80036;stroke-width:1.0;"/><path d="M744.9219,126.7656 L744.9219,124.6094 L752.3125,124.6094 L752.3125,126.7656 L749.8438,126.7656 L749.8438,134.8438 L752.3125,134.8438 L752.3125,137 L744.9219,137 L744.9219,134.8438 L747.3906,134.8438 L747.3906,126.7656 L744.9219,126.7656 Z " fill="#000000"/><text fill="#000000" font-family="sans-serif" font-size="12" font-style="italic" lengthAdjust="spacing" textLength="129" x="763" y="135.1543">caching_context_intf</text><line style="stroke:#A80036;stroke-width:1.5;" x1="735" x2="894" y1="147" y2="147"/><line style="stroke:#A80036;stroke-width:1.5;" x1="735" x2="894" y1="155" y2="155"/><!--MD5=[f20e367435066fc9f96db520b31f46c4]
class introspective_context_intf--><rect codeLine="11" fill="#FEFECE" filter="url(#f1jbqgy3gzjmf5)" height="48" id="introspective_context_intf" style="stroke:#A80036;stroke-width:1.5;" width="192" x="930.5" y="115"/><ellipse cx="945.5" cy="131" fill="#B4A7E5" rx="11" ry="11" style="stroke:#A80036;stroke-width:1.0;"/><path d="M941.4219,126.7656 L941.4219,124.6094 L948.8125,124.6094 L948.8125,126.7656 L946.3438,126.7656 L946.3438,134.8438 L948.8125,134.8438 L948.8125,137 L941.4219,137 L941.4219,134.8438 L943.8906,134.8438 L943.8906,126.7656 L941.4219,126.7656 Z " fill="#000000"/><text fill="#000000" font-family="sans-serif" font-size="12" font-style="italic" lengthAdjust="spacing" textLength="160" x="959.5" y="135.1543">introspective_context_intf</text><line style="stroke:#A80036;stroke-width:1.5;" x1="931.5" x2="1121.5" y1="147" y2="147"/><line style="stroke:#A80036;stroke-width:1.5;" x1="931.5" x2="1121.5" y1="155" y2="155"/><!--MD5=[6ffc37fed12a9fd098bbe064c94b9320]
reverse link context_intf to local_context_intf--><path codeLine="13" d="M455.5,48 C382.09,64.25 265.73,90.45 165.5,115 C159.83,116.39 153.95,117.86 148.06,119.35 " fill="none" id="context_intf-backto-local_context_intf" style="stroke:#A80036;stroke-width:1.0;"/><polygon fill="none" points="454.44,41.06,475.48,43.59,457.46,54.73,454.44,41.06" style="stroke:#A80036;stroke-width:1.0;"/><!--MD5=[f27ae64bb411a52902d3b86f64f620e7]
reverse link context_intf to remote_context_intf--><path codeLine="14" d="M561.68,70.23 C574.58,85.1 588.95,101.65 600.26,114.68 " fill="none" id="context_intf-backto-remote_context_intf" style="stroke:#A80036;stroke-width:1.0;"/><polygon fill="none" points="556.29,74.69,548.46,55,566.86,65.52,556.29,74.69" style="stroke:#A80036;stroke-width:1.0;"/><!--MD5=[b561630ae77534c02e2cdfd69eed8119]
reverse link context_intf to sync_context_intf--><path codeLine="15" d="M495.32,70.23 C482.42,85.1 468.05,101.65 456.74,114.68 " fill="none" id="context_intf-backto-sync_context_intf" style="stroke:#A80036;stroke-width:1.0;"/><polygon fill="none" points="490.14,65.52,508.54,55,500.71,74.69,490.14,65.52" style="stroke:#A80036;stroke-width:1.0;"/><!--MD5=[d998e23872efeb0def88303ab29af2d0]
reverse link context_intf to async_context_intf--><path codeLine="16" d="M456.43,60.19 C412.79,77.26 357.81,98.76 316.72,114.84 " fill="none" id="context_intf-backto-async_context_intf" style="stroke:#A80036;stroke-width:1.0;"/><polygon fill="none" points="454.11,53.58,475.28,52.82,459.21,66.62,454.11,53.58" style="stroke:#A80036;stroke-width:1.0;"/><!--MD5=[5324313bd100aa913c62eee8d77331e8]
reverse link local_context_intf to local_async_context_intf--><path codeLine="17" d="M110.36,178.7 C122.88,193.45 136.76,209.79 147.7,222.68 " fill="none" id="local_context_intf-backto-local_async_context_intf" style="stroke:#A80036;stroke-width:1.0;"/><polygon fill="none" points="104.64,182.78,97.03,163,115.31,173.72,104.64,182.78" style="stroke:#A80036;stroke-width:1.0;"/><!--MD5=[422fd02890b17e35e00386bd9013d9ed]
reverse link async_context_intf to local_async_context_intf--><path codeLine="18" d="M224.64,178.7 C212.12,193.45 198.24,209.79 187.3,222.68 " fill="none" id="async_context_intf-backto-local_async_context_intf" style="stroke:#A80036;stroke-width:1.0;"/><polygon fill="none" points="219.69,173.72,237.97,163,230.36,182.78,219.69,173.72" style="stroke:#A80036;stroke-width:1.0;"/><!--MD5=[4bde5cdd38c2f3ca01ffac8909f1d2a7]
reverse link remote_context_intf to remote_async_context_intf--><path codeLine="19" d="M580.91,176.81 C564.54,192.04 546.04,209.24 531.58,222.68 " fill="none" id="remote_context_intf-backto-remote_async_context_intf" style="stroke:#A80036;stroke-width:1.0;"/><polygon fill="none" points="576.35,171.49,595.76,163,585.88,181.75,576.35,171.49" style="stroke:#A80036;stroke-width:1.0;"/><!--MD5=[62c7068d7baad106aebbb509b2719a01]
reverse link async_context_intf to remote_async_context_intf--><path codeLine="20" d="M329.93,170.83 C368.96,187.45 416.31,207.6 452.15,222.86 " fill="none" id="async_context_intf-backto-remote_async_context_intf" style="stroke:#A80036;stroke-width:1.0;"/><polygon fill="none" points="327.19,177.27,311.53,163,332.67,164.39,327.19,177.27" style="stroke:#A80036;stroke-width:1.0;"/><!--MD5=[ddd56b7a3592ecf16f10f22a4531b6e6]
reverse link context_intf to caching_context_intf--><path codeLine="21" d="M600.42,58.65 C647.17,75.98 707.5,98.34 752.2,114.91 " fill="none" id="context_intf-backto-caching_context_intf" style="stroke:#A80036;stroke-width:1.0;"/><polygon fill="none" points="597.94,65.2,581.62,51.69,602.81,52.08,597.94,65.2" style="stroke:#A80036;stroke-width:1.0;"/><!--MD5=[cccbf07b8d859c6a3828e3c251eaf0ff]
reverse link context_intf to introspective_context_intf--><path codeLine="22" d="M601.53,47.54 C688.51,66.06 834.08,97.04 930.2,117.5 " fill="none" id="context_intf-backto-introspective_context_intf" style="stroke:#A80036;stroke-width:1.0;"/><polygon fill="none" points="599.9,54.35,581.79,43.34,602.81,40.66,599.9,54.35" style="stroke:#A80036;stroke-width:1.0;"/><!--MD5=[4e9196361bcf3339d903df8e1a3c77c7]
@startuml
interface context_intf
interface local_context_intf
interface remote_context_intf
interface sync_context_intf
interface async_context_intf
interface local_async_context_intf
interface local_async_context_intf
interface remote_async_context_intf
interface remote_async_context_intf
interface caching_context_intf
interface introspective_context_intf

context_intf <|- - local_context_intf
context_intf <|- - remote_context_intf
context_intf <|- - sync_context_intf
context_intf <|- - async_context_intf
local_context_intf <|- - local_async_context_intf
async_context_intf <|- - local_async_context_intf
remote_context_intf <|- - remote_async_context_intf
async_context_intf <|- - remote_async_context_intf
context_intf <|- - caching_context_intf
context_intf <|- - introspective_context_intf
@enduml

PlantUML version 1.2022.0(Tue Jan 11 17:16:42 CET 2022)
(GPL source distribution)
Java Runtime: OpenJDK Runtime Environment
JVM: OpenJDK 64-Bit Server VM
Default Encoding: UTF-8
Language: en
Country: null
--></g></svg>