<?xml version="1.0" encoding="UTF-8" standalone="no"?><svg xmlns="http://www.w3.org/2000/svg" xmlns:xlink="http://www.w3.org/1999/xlink" contentScriptType="application/ecmascript" contentStyleType="text/css" height="841px" preserveAspectRatio="none" style="width:1243px;height:841px;background:#FFFFFF;" version="1.1" viewBox="0 0 1243 841" width="1243px" zoomAndPan="magnify"><defs><filter height="300%" id="fhmnvax87mo39" width="300%" x="-1" y="-1"><feGaussianBlur result="blurOut" stdDeviation="2.0"/><feColorMatrix in="blurOut" result="blurOut2" type="matrix" values="0 0 0 0 0 0 0 0 0 0 0 0 0 0 0 0 0 0 .4 0"/><feOffset dx="4.0" dy="4.0" in="blurOut2" result="blurOut3"/><feBlend in="SourceGraphic" in2="blurOut3" mode="normal"/></filter></defs><g><line style="stroke:#A80036;stroke-width:1.0;stroke-dasharray:5.0,5.0;" x1="52" x2="52" y1="40.2969" y2="798.4844"/><line style="stroke:#A80036;stroke-width:1.0;stroke-dasharray:5.0,5.0;" x1="183" x2="183" y1="40.2969" y2="798.4844"/><line style="stroke:#A80036;stroke-width:1.0;stroke-dasharray:5.0,5.0;" x1="339" x2="339" y1="40.2969" y2="798.4844"/><line style="stroke:#A80036;stroke-width:1.0;stroke-dasharray:5.0,5.0;" x1="547.5" x2="547.5" y1="40.2969" y2="798.4844"/><line style="stroke:#A80036;stroke-width:1.0;stroke-dasharray:5.0,5.0;" x1="675.5" x2="675.5" y1="40.2969" y2="798.4844"/><line style="stroke:#A80036;stroke-width:1.0;stroke-dasharray:5.0,5.0;" x1="874.5" x2="874.5" y1="40.2969" y2="798.4844"/><line style="stroke:#A80036;stroke-width:1.0;stroke-dasharray:5.0,5.0;" x1="1064.5" x2="1064.5" y1="40.2969" y2="798.4844"/><line style="stroke:#A80036;stroke-width:1.0;stroke-dasharray:5.0,5.0;" x1="1196.5" x2="1196.5" y1="40.2969" y2="798.4844"/><rect fill="#FEFECE" filter="url(#fhmnvax87mo39)" height="30.2969" style="stroke:#A80036;stroke-width:1.5;" width="90" x="5" y="5"/><text fill="#000000" font-family="sans-serif" font-size="14" lengthAdjust="spacing" textLength="76" x="12" y="24.9951">RPC server</text><rect fill="#FEFECE" filter="url(#fhmnvax87mo39)" height="30.2969" style="stroke:#A80036;stroke-width:1.5;" width="90" x="5" y="797.4844"/><text fill="#000000" font-family="sans-serif" font-size="14" lengthAdjust="spacing" textLength="76" x="12" y="817.4795">RPC server</text><rect fill="#FEFECE" filter="url(#fhmnvax87mo39)" height="30.2969" style="stroke:#A80036;stroke-width:1.5;" width="96" x="133" y="5"/><text fill="#000000" font-family="sans-serif" font-size="14" lengthAdjust="spacing" textLength="82" x="140" y="24.9951">seri_catalog</text><rect fill="#FEFECE" filter="url(#fhmnvax87mo39)" height="30.2969" style="stroke:#A80036;stroke-width:1.5;" width="96" x="133" y="797.4844"/><text fill="#000000" font-family="sans-serif" font-size="14" lengthAdjust="spacing" textLength="82" x="140" y="817.4795">seri_catalog</text><rect fill="#FEFECE" filter="url(#fhmnvax87mo39)" height="30.2969" style="stroke:#A80036;stroke-width:1.5;" width="136" x="269" y="5"/><text fill="#000000" font-family="sans-serif" font-size="14" lengthAdjust="spacing" textLength="122" x="276" y="24.9951">seri_resolver_impl</text><rect fill="#FEFECE" filter="url(#fhmnvax87mo39)" height="30.2969" style="stroke:#A80036;stroke-width:1.5;" width="136" x="269" y="797.4844"/><text fill="#000000" font-family="sans-serif" font-size="14" lengthAdjust="spacing" textLength="122" x="276" y="817.4795">seri_resolver_impl</text><rect fill="#FEFECE" filter="url(#fhmnvax87mo39)" height="30.2969" style="stroke:#A80036;stroke-width:1.5;" width="41" x="525.5" y="5"/><text fill="#000000" font-family="sans-serif" font-size="14" lengthAdjust="spacing" textLength="27" x="532.5" y="24.9951">free</text><rect fill="#FEFECE" filter="url(#fhmnvax87mo39)" height="30.2969" style="stroke:#A80036;stroke-width:1.5;" width="41" x="525.5" y="797.4844"/><text fill="#000000" font-family="sans-serif" font-size="14" lengthAdjust="spacing" textLength="27" x="532.5" y="817.4795">free</text><rect fill="#FEFECE" filter="url(#fhmnvax87mo39)" height="30.2969" style="stroke:#A80036;stroke-width:1.5;" width="186" x="580.5" y="5"/><text fill="#000000" font-family="sans-serif" font-size="14" lengthAdjust="spacing" textLength="172" x="587.5" y="24.9951">function_request_erased</text><rect fill="#FEFECE" filter="url(#fhmnvax87mo39)" height="30.2969" style="stroke:#A80036;stroke-width:1.5;" width="186" x="580.5" y="797.4844"/><text fill="#000000" font-family="sans-serif" font-size="14" lengthAdjust="spacing" textLength="172" x="587.5" y="817.4795">function_request_erased</text><rect fill="#FEFECE" filter="url(#fhmnvax87mo39)" height="30.2969" style="stroke:#A80036;stroke-width:1.5;" width="185" x="780.5" y="5"/><text fill="#000000" font-family="sans-serif" font-size="14" lengthAdjust="spacing" textLength="171" x="787.5" y="24.9951">cereal_functions_registry</text><rect fill="#FEFECE" filter="url(#fhmnvax87mo39)" height="30.2969" style="stroke:#A80036;stroke-width:1.5;" width="185" x="780.5" y="797.4844"/><text fill="#000000" font-family="sans-serif" font-size="14" lengthAdjust="spacing" textLength="171" x="787.5" y="817.4795">cereal_functions_registry</text><rect fill="#FEFECE" filter="url(#fhmnvax87mo39)" height="30.2969" style="stroke:#A80036;stroke-width:1.5;" width="166" x="979.5" y="5"/><text fill="#000000" font-family="sans-serif" font-size="14" lengthAdjust="spacing" textLength="152" x="986.5" y="24.9951">function_request_impl</text><rect fill="#FEFECE" filter="url(#fhmnvax87mo39)" height="30.2969" style="stroke:#A80036;stroke-width:1.5;" width="166" x="979.5" y="797.4844"/><text fill="#000000" font-family="sans-serif" font-size="14" lengthAdjust="spacing" textLength="152" x="986.5" y="817.4795">function_request_impl</text><rect fill="#FEFECE" filter="url(#fhmnvax87mo39)" height="30.2969" style="stroke:#A80036;stroke-width:1.5;" width="70" x="1159.5" y="5"/><text fill="#000000" font-family="sans-serif" font-size="14" lengthAdjust="spacing" textLength="56" x="1166.5" y="24.9951">function</text><rect fill="#FEFECE" filter="url(#fhmnvax87mo39)" height="30.2969" style="stroke:#A80036;stroke-width:1.5;" width="70" x="1159.5" y="797.4844"/><text fill="#000000" font-family="sans-serif" font-size="14" lengthAdjust="spacing" textLength="56" x="1166.5" y="817.4795">function</text><polygon fill="#A80036" points="171,67.4297,181,71.4297,171,75.4297,175,71.4297" style="stroke:#A80036;stroke-width:1.0;"/><line style="stroke:#A80036;stroke-width:1.0;" x1="52" x2="177" y1="71.4297" y2="71.4297"/><text fill="#000000" font-family="sans-serif" font-size="13" lengthAdjust="spacing" textLength="107" x="59" y="66.3638">resolve(seri_req)</text><line style="stroke:#A80036;stroke-width:1.0;" x1="183" x2="225" y1="100.5625" y2="100.5625"/><line style="stroke:#A80036;stroke-width:1.0;" x1="225" x2="225" y1="100.5625" y2="113.5625"/><line style="stroke:#A80036;stroke-width:1.0;" x1="184" x2="225" y1="113.5625" y2="113.5625"/><polygon fill="#A80036" points="194,109.5625,184,113.5625,194,117.5625,190,113.5625" style="stroke:#A80036;stroke-width:1.0;"/><text fill="#000000" font-family="sans-serif" font-size="13" lengthAdjust="spacing" textLength="142" x="190" y="95.4966">find_uuid_str(seri_req)</text><line style="stroke:#A80036;stroke-width:1.0;" x1="183" x2="225" y1="142.6953" y2="142.6953"/><line style="stroke:#A80036;stroke-width:1.0;" x1="225" x2="225" y1="142.6953" y2="155.6953"/><line style="stroke:#A80036;stroke-width:1.0;" x1="184" x2="225" y1="155.6953" y2="155.6953"/><polygon fill="#A80036" points="194,151.6953,184,155.6953,194,159.6953,190,155.6953" style="stroke:#A80036;stroke-width:1.0;"/><text fill="#000000" font-family="sans-serif" font-size="13" lengthAdjust="spacing" textLength="118" x="190" y="137.6294">find_resolver(uuid)</text><polygon fill="#A80036" points="327,180.8281,337,184.8281,327,188.8281,331,184.8281" style="stroke:#A80036;stroke-width:1.0;"/><line style="stroke:#A80036;stroke-width:1.0;" x1="183" x2="333" y1="184.8281" y2="184.8281"/><text fill="#000000" font-family="sans-serif" font-size="13" lengthAdjust="spacing" textLength="107" x="190" y="179.7622">resolve(seri_req)</text><polygon fill="#A80036" points="536,209.9609,546,213.9609,536,217.9609,540,213.9609" style="stroke:#A80036;stroke-width:1.0;"/><line style="stroke:#A80036;stroke-width:1.0;" x1="339" x2="542" y1="213.9609" y2="213.9609"/><text fill="#000000" font-family="sans-serif" font-size="13" lengthAdjust="spacing" textLength="185" x="346" y="208.895">deserialize_request(seri_req)</text><polygon fill="#A80036" points="663.5,239.0938,673.5,243.0938,663.5,247.0938,667.5,243.0938" style="stroke:#A80036;stroke-width:1.0;"/><line style="stroke:#A80036;stroke-width:1.0;" x1="548" x2="669.5" y1="243.0938" y2="243.0938"/><text fill="#000000" font-family="sans-serif" font-size="13" lengthAdjust="spacing" textLength="97" x="555" y="238.0278">create(archive)</text><line style="stroke:#A80036;stroke-width:1.0;" x1="675.5" x2="717.5" y1="272.2266" y2="272.2266"/><line style="stroke:#A80036;stroke-width:1.0;" x1="717.5" x2="717.5" y1="272.2266" y2="285.2266"/><line style="stroke:#A80036;stroke-width:1.0;" x1="676.5" x2="717.5" y1="285.2266" y2="285.2266"/><polygon fill="#A80036" points="686.5,281.2266,676.5,285.2266,686.5,289.2266,682.5,285.2266" style="stroke:#A80036;stroke-width:1.0;"/><text fill="#000000" font-family="sans-serif" font-size="13" lengthAdjust="spacing" textLength="114" x="682.5" y="267.1606">load uuid(archive)</text><polygon fill="#A80036" points="863,310.3594,873,314.3594,863,318.3594,867,314.3594" style="stroke:#A80036;stroke-width:1.0;"/><line style="stroke:#A80036;stroke-width:1.0;" x1="675.5" x2="869" y1="314.3594" y2="314.3594"/><text fill="#000000" font-family="sans-serif" font-size="13" lengthAdjust="spacing" textLength="78" x="682.5" y="309.2935">create(uuid)</text><polygon fill="#A80036" points="1052.5,339.4922,1062.5,343.4922,1052.5,347.4922,1056.5,343.4922" style="stroke:#A80036;stroke-width:1.0;"/><line style="stroke:#A80036;stroke-width:1.0;" x1="875" x2="1058.5" y1="343.4922" y2="343.4922"/><text fill="#000000" font-family="sans-serif" font-size="13" lengthAdjust="spacing" textLength="78" x="882" y="338.4263">create(uuid)</text><polygon fill="#A80036" points="863,368.625,873,372.625,863,376.625,867,372.625" style="stroke:#A80036;stroke-width:1.0;"/><line style="stroke:#A80036;stroke-width:1.0;" x1="675.5" x2="869" y1="372.625" y2="372.625"/><text fill="#000000" font-family="sans-serif" font-size="13" lengthAdjust="spacing" textLength="83" x="682.5" y="367.5591">load(archive)</text><polygon fill="#A80036" points="1052.5,397.7578,1062.5,401.7578,1052.5,405.7578,1056.5,401.7578" style="stroke:#A80036;stroke-width:1.0;"/><line style="stroke:#A80036;stroke-width:1.0;" x1="875" x2="1058.5" y1="401.7578" y2="401.7578"/><text fill="#000000" font-family="sans-serif" font-size="13" lengthAdjust="spacing" textLength="83" x="882" y="396.6919">load(archive)</text><polygon fill="#A80036" points="350,426.8906,340,430.8906,350,434.8906,346,430.8906" style="stroke:#A80036;stroke-width:1.0;"/><line style="stroke:#A80036;stroke-width:1.0;stroke-dasharray:2.0,2.0;" x1="344" x2="547" y1="430.8906" y2="430.8906"/><text fill="#000000" font-family="sans-serif" font-size="13" lengthAdjust="spacing" textLength="31" x="356" y="425.8247">f_r_e</text><polygon fill="#A80036" points="536,456.0234,546,460.0234,536,464.0234,540,460.0234" style="stroke:#A80036;stroke-width:1.0;"/><line style="stroke:#A80036;stroke-width:1.0;" x1="339" x2="542" y1="460.0234" y2="460.0234"/><text fill="#000000" font-family="sans-serif" font-size="13" lengthAdjust="spacing" textLength="143" x="346" y="454.9575">resolve_request(f_r_e)</text><polygon fill="#A80036" points="663.5,485.1563,673.5,489.1563,663.5,493.1563,667.5,489.1563" style="stroke:#A80036;stroke-width:1.0;"/><line style="stroke:#A80036;stroke-width:1.0;" x1="548" x2="669.5" y1="489.1563" y2="489.1563"/><text fill="#000000" font-family="sans-serif" font-size="13" lengthAdjust="spacing" textLength="82" x="555" y="484.0903">resolve_sync</text><polygon fill="#A80036" points="1052.5,514.2891,1062.5,518.2891,1052.5,522.2891,1056.5,518.2891" style="stroke:#A80036;stroke-width:1.0;"/><line style="stroke:#A80036;stroke-width:1.0;" x1="675.5" x2="1058.5" y1="518.2891" y2="518.2891"/><text fill="#000000" font-family="sans-serif" font-size="13" lengthAdjust="spacing" textLength="82" x="682.5" y="513.2231">resolve_sync</text><polygon fill="#A80036" points="1184.5,543.4219,1194.5,547.4219,1184.5,551.4219,1188.5,547.4219" style="stroke:#A80036;stroke-width:1.0;"/><line style="stroke:#A80036;stroke-width:1.0;" x1="1064.5" x2="1190.5" y1="547.4219" y2="547.4219"/><text fill="#000000" font-family="sans-serif" font-size="13" lengthAdjust="spacing" textLength="59" x="1071.5" y="542.356">call(args)</text><polygon fill="#A80036" points="1075.5,572.5547,1065.5,576.5547,1075.5,580.5547,1071.5,576.5547" style="stroke:#A80036;stroke-width:1.0;"/><line style="stroke:#A80036;stroke-width:1.0;stroke-dasharray:2.0,2.0;" x1="1069.5" x2="1195.5" y1="576.5547" y2="576.5547"/><text fill="#000000" font-family="sans-serif" font-size="13" lengthAdjust="spacing" textLength="34" x="1081.5" y="571.4888">value</text><polygon fill="#A80036" points="686.5,601.6875,676.5,605.6875,686.5,609.6875,682.5,605.6875" style="stroke:#A80036;stroke-width:1.0;"/><line style="stroke:#A80036;stroke-width:1.0;stroke-dasharray:2.0,2.0;" x1="680.5" x2="1063.5" y1="605.6875" y2="605.6875"/><text fill="#000000" font-family="sans-serif" font-size="13" lengthAdjust="spacing" textLength="34" x="692.5" y="600.6216">value</text><polygon fill="#A80036" points="559,630.8203,549,634.8203,559,638.8203,555,634.8203" style="stroke:#A80036;stroke-width:1.0;"/><line style="stroke:#A80036;stroke-width:1.0;stroke-dasharray:2.0,2.0;" x1="553" x2="674.5" y1="634.8203" y2="634.8203"/><text fill="#000000" font-family="sans-serif" font-size="13" lengthAdjust="spacing" textLength="34" x="565" y="629.7544">value</text><polygon fill="#A80036" points="350,659.9531,340,663.9531,350,667.9531,346,663.9531" style="stroke:#A80036;stroke-width:1.0;"/><line style="stroke:#A80036;stroke-width:1.0;stroke-dasharray:2.0,2.0;" x1="344" x2="547" y1="663.9531" y2="663.9531"/><text fill="#000000" font-family="sans-serif" font-size="13" lengthAdjust="spacing" textLength="34" x="356" y="658.8872">value</text><polygon fill="#A80036" points="536,689.0859,546,693.0859,536,697.0859,540,693.0859" style="stroke:#A80036;stroke-width:1.0;"/><line style="stroke:#A80036;stroke-width:1.0;" x1="339" x2="542" y1="693.0859" y2="693.0859"/><text fill="#000000" font-family="sans-serif" font-size="13" lengthAdjust="spacing" textLength="162" x="346" y="688.02">serialize_response(value)</text><polygon fill="#A80036" points="350,718.2188,340,722.2188,350,726.2188,346,722.2188" style="stroke:#A80036;stroke-width:1.0;"/><line style="stroke:#A80036;stroke-width:1.0;stroke-dasharray:2.0,2.0;" x1="344" x2="547" y1="722.2188" y2="722.2188"/><text fill="#000000" font-family="sans-serif" font-size="13" lengthAdjust="spacing" textLength="103" x="356" y="717.1528">serialized_result</text><polygon fill="#A80036" points="194,747.3516,184,751.3516,194,755.3516,190,751.3516" style="stroke:#A80036;stroke-width:1.0;"/><line style="stroke:#A80036;stroke-width:1.0;stroke-dasharray:2.0,2.0;" x1="188" x2="338" y1="751.3516" y2="751.3516"/><text fill="#000000" font-family="sans-serif" font-size="13" lengthAdjust="spacing" textLength="103" x="200" y="746.2856">serialized_result</text><polygon fill="#A80036" points="63,776.4844,53,780.4844,63,784.4844,59,780.4844" style="stroke:#A80036;stroke-width:1.0;"/><line style="stroke:#A80036;stroke-width:1.0;stroke-dasharray:2.0,2.0;" x1="57" x2="182" y1="780.4844" y2="780.4844"/><text fill="#000000" font-family="sans-serif" font-size="13" lengthAdjust="spacing" textLength="103" x="69" y="775.4185">serialized_result</text><!--MD5=[c8c83f0a8def0fff1a7d20bfcb10999d]
@startuml
"RPC server" -> seri_catalog: resolve(seri_req)
seri_catalog -> seri_catalog: find_uuid_str(seri_req)
seri_catalog -> seri_catalog: find_resolver(uuid)

seri_catalog -> seri_resolver_impl: resolve(seri_req)
seri_resolver_impl -> free: deserialize_request(seri_req)
free -> function_request_erased: create(archive)
function_request_erased -> function_request_erased: load uuid(archive)
function_request_erased -> cereal_functions_registry: create(uuid)
cereal_functions_registry -> function_request_impl: create(uuid)
function_request_erased -> cereal_functions_registry: load(archive)
cereal_functions_registry -> function_request_impl: load(archive)
seri_resolver_impl <- - free: f_r_e

seri_resolver_impl -> free: resolve_request(f_r_e)
free -> function_request_erased: resolve_sync
function_request_erased -> function_request_impl: resolve_sync
function_request_impl -> function: call(args)
function_request_impl <- - function: value
function_request_erased <- - function_request_impl: value
free <- - function_request_erased: value
seri_resolver_impl <- - free: value
seri_resolver_impl -> free: serialize_response(value)
seri_resolver_impl <- - free: serialized_result
seri_catalog <- - seri_resolver_impl: serialized_result
"RPC server" <- - seri_catalog: serialized_result
@enduml

PlantUML version 1.2022.0(Tue Jan 11 17:16:42 CET 2022)
(GPL source distribution)
Java Runtime: OpenJDK Runtime Environment
JVM: OpenJDK 64-Bit Server VM
Default Encoding: UTF-8
Language: en
Country: null
--></g></svg>